<svg width="811" height="399" viewBox="0 0 811 399" fill="none" xmlns="http://www.w3.org/2000/svg">
<path d="M686 192L686.908 190.806L686 192ZM805 399L810.909 382.718L793.854 385.742L805 399ZM0.0121216 1.19031C0.145346 2.23188 0.282025 3.26518 0.42217 4.29027L3.39452 3.8839C3.25557 2.86752 3.12002 1.84281 2.98788 0.80969L0.0121216 1.19031ZM1.30477 10.3428C1.62324 12.3943 1.95664 14.4113 2.30511 16.3944L5.25984 15.8752C4.91493 13.9123 4.58477 11.915 4.26927 9.8826L1.30477 10.3428ZM3.42516 22.3908C3.8313 24.4393 4.25486 26.4497 4.69598 28.4228L7.6237 27.7682C7.18804 25.8196 6.76947 23.8329 6.36788 21.8073L3.42516 22.3908ZM6.09485 34.3206C6.60771 36.3612 7.14109 38.3595 7.69519 40.3163L10.5817 39.499C10.036 37.5717 9.51023 35.6021 9.00436 33.5894L6.09485 34.3206ZM9.45721 46.1808C10.088 48.1613 10.7423 50.0966 11.4201 51.9875L14.2442 50.9751C13.5788 49.119 12.936 47.2178 12.3157 45.2704L9.45721 46.1808ZM13.6215 57.7677C14.402 59.6983 15.2101 61.5792 16.046 63.4117L18.7754 62.1666C17.9582 60.3752 17.1674 58.5345 16.4028 56.6432L13.6215 57.7677ZM18.7236 68.9323C19.6858 70.7989 20.6806 72.6107 21.7083 74.3694L24.2985 72.8558C23.2981 71.144 22.3288 69.3786 21.3902 67.5578L18.7236 68.9323ZM24.9761 79.616C26.1283 81.3521 27.3172 83.031 28.5433 84.6545L30.9373 82.8465C29.7486 81.2725 28.5948 79.6434 27.4757 77.9571L24.9761 79.616ZM32.4208 89.4619C33.7794 91.0392 35.1787 92.5579 36.619 94.0201L38.7563 91.9149C37.3632 90.5005 36.0091 89.031 34.6937 87.504L32.4208 89.4619ZM41.1149 98.2851C42.6623 99.6563 44.2519 100.971 45.8841 102.231L47.7178 99.857C46.1385 98.6374 44.6009 97.3658 43.1045 96.0398L41.1149 98.2851ZM50.9034 105.849C52.6088 106.995 54.3561 108.09 56.1456 109.136L57.6593 106.546C55.9229 105.531 54.2289 104.47 52.577 103.359L50.9034 105.849ZM61.5824 112.099C63.4005 113.022 65.2585 113.9 67.1565 114.737L68.3666 111.992C66.5168 111.176 64.7082 110.321 62.9403 109.424L61.5824 112.099ZM72.8507 117.077C74.7471 117.802 76.6805 118.491 78.6513 119.145L79.5961 116.298C77.6663 115.658 75.7754 114.984 73.9228 114.275L72.8507 117.077ZM84.5453 120.967C86.4917 121.526 88.4722 122.056 90.4871 122.557L91.2114 119.646C89.2299 119.153 87.2842 118.633 85.3741 118.084L84.5453 120.967ZM96.4493 123.938C98.4255 124.363 100.433 124.765 102.472 125.143L103.02 122.194C101.007 121.82 99.0275 121.424 97.0804 121.005L96.4493 123.938ZM108.544 126.19C110.524 126.507 112.532 126.804 114.569 127.084L114.977 124.112C112.961 123.835 110.975 123.541 109.017 123.228L108.544 126.19ZM120.651 127.857C122.659 128.093 124.693 128.314 126.754 128.52L127.053 125.535C125.008 125.33 122.991 125.111 121.001 124.878L120.651 127.857ZM132.815 129.08C134.833 129.251 136.875 129.411 138.942 129.559L139.156 126.566C137.102 126.419 135.073 126.261 133.069 126.091L132.815 129.08ZM145.016 129.957C147.029 130.078 149.064 130.19 151.121 130.292L151.271 127.296C149.223 127.194 147.198 127.083 145.196 126.963L145.016 129.957ZM157.232 130.569C159.239 130.652 161.267 130.727 163.316 130.795L163.416 127.797C161.375 127.729 159.354 127.654 157.355 127.572L157.232 130.569ZM169.449 130.979C171.452 131.032 173.475 131.081 175.517 131.124L175.58 128.124C173.543 128.081 171.526 128.033 169.529 127.98L169.449 130.979ZM181.66 131.238C183.661 131.271 185.68 131.299 187.717 131.324L187.754 128.324C185.72 128.299 183.705 128.271 181.708 128.239L181.66 131.238ZM193.861 131.389C195.862 131.407 197.88 131.421 199.915 131.434L199.933 128.434C197.901 128.422 195.885 128.407 193.887 128.389L193.861 131.389ZM206.052 131.465C208.056 131.473 210.075 131.479 212.112 131.484L212.119 128.484C210.084 128.479 208.066 128.473 206.064 128.465L206.052 131.465ZM218.235 131.494C220.244 131.497 222.269 131.498 224.309 131.499L224.31 128.499C222.27 128.498 220.247 128.497 218.238 128.494L218.235 131.494ZM230.413 131.5C231.439 131.5 232.467 131.5 233.5 131.5V128.5C232.467 128.5 231.439 128.5 230.414 128.5L230.413 131.5ZM233.5 131.5C234.49 131.5 235.483 131.497 236.479 131.492L236.463 128.492C235.473 128.497 234.485 128.5 233.5 128.5V131.5ZM242.489 131.43C244.483 131.4 246.488 131.36 248.504 131.312L248.432 128.313C246.424 128.361 244.428 128.4 242.444 128.43L242.489 131.43ZM254.504 131.144C256.499 131.08 258.505 131.009 260.52 130.93L260.403 127.932C258.395 128.011 256.396 128.082 254.408 128.145L254.504 131.144ZM266.508 130.678C268.505 130.588 270.512 130.491 272.527 130.389L272.375 127.393C270.365 127.495 268.364 127.591 266.373 127.681L266.508 130.678ZM278.503 130.072C280.502 129.962 282.51 129.846 284.526 129.726L284.348 126.732C282.336 126.851 280.332 126.966 278.337 127.077L278.503 130.072ZM290.489 129.362C292.484 129.236 294.487 129.107 296.497 128.976L296.301 125.982C294.293 126.114 292.293 126.242 290.301 126.367L290.489 129.362ZM302.469 128.577C304.46 128.442 306.458 128.305 308.462 128.165L308.254 125.173C306.251 125.312 304.255 125.449 302.266 125.584L302.469 128.577ZM314.446 127.746C316.433 127.606 318.426 127.464 320.425 127.322L320.212 124.329C318.213 124.472 316.221 124.613 314.235 124.753L314.446 127.746ZM326.421 126.894C328.404 126.753 330.394 126.611 332.388 126.469L332.176 123.477C330.181 123.619 328.191 123.76 326.207 123.902L326.421 126.894ZM338.388 126.046C340.371 125.906 342.36 125.768 344.353 125.631L344.147 122.638C342.152 122.775 340.162 122.914 338.178 123.053L338.388 126.046ZM350.341 125.223C352.33 125.089 354.323 124.957 356.321 124.827L356.126 121.833C354.126 121.963 352.13 122.096 350.139 122.229L350.341 125.223ZM362.299 124.445C364.293 124.32 366.291 124.197 368.293 124.078L368.114 121.083C366.109 121.203 364.108 121.325 362.112 121.45L362.299 124.445ZM374.263 123.731C376.257 123.619 378.255 123.509 380.256 123.404L380.098 120.408C378.093 120.514 376.092 120.623 374.095 120.736L374.263 123.731ZM386.233 123.101C388.225 123.004 390.22 122.912 392.218 122.824L392.086 119.827C390.083 119.915 388.084 120.008 386.088 120.105L386.233 123.101ZM398.208 122.574C400.199 122.496 402.192 122.422 404.188 122.355L404.086 119.356C402.084 119.424 400.086 119.498 398.09 119.576L398.208 122.574ZM410.183 122.167C412.174 122.111 414.167 122.06 416.162 122.015L416.095 119.016C414.093 119.061 412.094 119.112 410.097 119.168L410.183 122.167ZM422.151 121.899C424.145 121.867 426.141 121.841 428.139 121.823L428.111 118.823C426.106 118.842 424.103 118.867 422.103 118.9L422.151 121.899ZM434.123 121.787C436.119 121.783 438.117 121.785 440.116 121.795L440.132 118.795C438.125 118.785 436.12 118.783 434.116 118.787L434.123 121.787ZM446.096 121.849C448.09 121.875 450.085 121.909 452.082 121.951L452.145 118.952C450.14 118.909 448.137 118.876 446.135 118.85L446.096 121.849ZM458.065 122.103C460.057 122.162 462.05 122.23 464.044 122.308L464.16 119.31C462.157 119.232 460.155 119.164 458.154 119.105L458.065 122.103ZM470.026 122.567C472.016 122.662 474.006 122.767 475.996 122.882L476.169 119.887C474.169 119.772 472.169 119.666 470.17 119.57L470.026 122.567ZM481.968 123.257C483.957 123.392 485.945 123.538 487.934 123.694L488.168 120.703C486.169 120.546 484.17 120.4 482.172 120.264L481.968 123.257ZM493.893 124.193C495.879 124.371 497.865 124.559 499.85 124.759L500.15 121.774C498.154 121.573 496.157 121.384 494.16 121.205L493.893 124.193ZM505.793 125.392C507.773 125.614 509.753 125.849 511.732 126.095L512.103 123.118C510.112 122.87 508.12 122.634 506.128 122.411L505.793 125.392ZM517.66 126.871C519.633 127.141 521.605 127.424 523.576 127.72L524.022 124.754C522.038 124.456 520.053 124.171 518.068 123.899L517.66 126.871ZM529.485 128.647C531.449 128.969 533.412 129.303 535.373 129.651L535.897 126.697C533.923 126.347 531.947 126.01 529.97 125.687L529.485 128.647ZM541.252 130.737C543.207 131.112 545.16 131.501 547.112 131.904L547.719 128.966C545.753 128.56 543.786 128.168 541.817 127.79L541.252 130.737ZM552.953 133.156C554.898 133.587 556.841 134.034 558.781 134.495L559.475 131.576C557.52 131.111 555.562 130.662 553.603 130.227L552.953 133.156ZM564.576 135.919C566.506 136.409 568.433 136.914 570.357 137.435L571.141 134.539C569.201 134.014 567.259 133.505 565.315 133.011L564.576 135.919ZM576.11 139.041C578.02 139.591 579.928 140.156 581.833 140.738L582.709 137.869C580.789 137.283 578.865 136.712 576.939 136.158L576.11 139.041ZM587.539 142.534C589.427 143.145 591.312 143.773 593.194 144.417L594.166 141.579C592.268 140.929 590.367 140.296 588.463 139.68L587.539 142.534ZM598.83 146.401C600.699 147.078 602.565 147.771 604.428 148.482L605.497 145.679C603.618 144.962 601.736 144.262 599.85 143.58L598.83 146.401ZM609.981 150.656C611.828 151.399 613.672 152.159 615.512 152.937L616.68 150.174C614.824 149.389 612.963 148.622 611.099 147.873L609.981 150.656ZM620.978 155.306C622.793 156.112 624.605 156.936 626.412 157.779L627.68 155.06C625.856 154.209 624.027 153.377 622.195 152.564L620.978 155.306ZM631.808 160.354C633.587 161.223 635.362 162.111 637.133 163.017L638.499 160.346C636.712 159.432 634.92 158.536 633.125 157.659L631.808 160.354ZM642.433 165.792C644.18 166.727 645.923 167.681 647.661 168.654L649.126 166.036C647.371 165.054 645.612 164.091 643.849 163.147L642.433 165.792ZM652.837 171.614C654.557 172.62 656.274 173.644 657.985 174.688L659.548 172.127C657.82 171.073 656.087 170.039 654.35 169.024L652.837 171.614ZM663.026 177.828C664.701 178.892 666.371 179.976 668.037 181.08L669.694 178.578C668.012 177.465 666.326 176.371 664.636 175.296L663.026 177.828ZM672.995 184.431C674.62 185.551 676.24 186.691 677.856 187.849L679.604 185.412C677.974 184.242 676.338 183.092 674.698 181.961L672.995 184.431ZM682.687 191.383C683.49 191.982 684.292 192.586 685.092 193.194L686.908 190.806C686.1 190.192 685.291 189.583 684.481 188.978L682.687 191.383ZM685.092 193.194C685.909 193.815 686.719 194.437 687.524 195.062L689.364 192.692C688.551 192.061 687.732 191.433 686.908 190.806L685.092 193.194ZM692.288 198.834C693.882 200.121 695.452 201.416 697 202.719L698.932 200.424C697.368 199.108 695.783 197.8 694.174 196.501L692.288 198.834ZM701.612 206.68C703.148 208.026 704.661 209.38 706.151 210.741L708.174 208.525C706.669 207.151 705.141 205.784 703.589 204.424L701.612 206.68ZM710.611 214.898C712.087 216.302 713.54 217.714 714.969 219.131L717.082 217.001C715.637 215.569 714.17 214.143 712.679 212.725L710.611 214.898ZM719.253 223.467C720.673 224.936 722.07 226.411 723.444 227.891L725.643 225.851C724.255 224.355 722.844 222.865 721.409 221.382L719.253 223.467ZM727.531 232.389C728.889 233.915 730.223 235.447 731.533 236.983L733.815 235.036C732.492 233.484 731.144 231.937 729.772 230.395L727.531 232.389ZM735.439 241.662C736.729 243.24 737.995 244.824 739.238 246.411L741.6 244.562C740.345 242.958 739.066 241.358 737.762 239.763L735.439 241.662ZM742.937 251.24C744.164 252.876 745.366 254.516 746.544 256.158L748.982 254.409C747.791 252.75 746.577 251.094 745.338 249.441L742.937 251.24ZM750.041 261.142C751.195 262.822 752.324 264.505 753.429 266.189L755.937 264.543C754.82 262.842 753.68 261.142 752.515 259.444L750.041 261.142ZM756.72 271.317C757.806 273.049 758.868 274.781 759.906 276.514L762.479 274.973C761.431 273.222 760.358 271.472 759.261 269.723L756.72 271.317ZM762.982 281.769C763.994 283.539 764.983 285.309 765.948 287.078L768.581 285.642C767.607 283.855 766.608 282.068 765.586 280.279L762.982 281.769ZM768.811 292.454C769.755 294.268 770.674 296.081 771.571 297.891L774.259 296.56C773.354 294.732 772.426 292.902 771.473 291.069L768.811 292.454ZM774.222 303.377C775.093 305.225 775.941 307.07 776.765 308.909L779.503 307.683C778.671 305.826 777.815 303.964 776.936 302.098L774.222 303.377ZM779.201 314.486C780.002 316.367 780.78 318.242 781.535 320.111L784.316 318.987C783.555 317.101 782.77 315.209 781.962 313.31L779.201 314.486ZM783.768 325.787C784.5 327.701 785.21 329.605 785.897 331.501L788.717 330.479C788.024 328.567 787.309 326.645 786.569 324.714L783.768 325.787ZM787.923 337.25C788.588 339.189 789.229 341.116 789.849 343.031L792.703 342.108C792.078 340.177 791.431 338.233 790.761 336.277L787.923 337.25ZM791.676 348.845C792.274 350.807 792.85 352.755 793.405 354.687L796.289 353.859C795.729 351.912 795.149 349.948 794.545 347.969L791.676 348.845ZM795.039 360.558C795.575 362.543 796.089 364.509 796.581 366.455L799.489 365.718C798.993 363.758 798.476 361.777 797.936 359.776L795.039 360.558ZM798.032 372.376C798.508 374.384 798.962 376.366 799.396 378.322L802.325 377.672C801.888 375.703 801.431 373.706 800.951 371.684L798.032 372.376ZM800.675 384.289C801.095 386.317 801.494 388.313 801.873 390.275L804.819 389.706C804.437 387.732 804.036 385.722 803.613 383.68L800.675 384.289Z" fill="white"/>
</svg>
