<svg width="578" height="485" viewBox="0 0 578 485" fill="none" xmlns="http://www.w3.org/2000/svg">
<path d="M421.003 130L421.198 131.487L421.003 130ZM24.0051 286L22.5607 285.595L24.0051 286ZM9.5021 485L18.1408 469.988L0.82034 470.012L9.5021 485ZM10.9648 476.116C10.9479 474.102 10.9255 472.127 10.8984 470.188L7.89866 470.23C7.92573 472.163 7.94801 474.133 7.96487 476.141L10.9648 476.116ZM10.7989 464.26C10.7596 462.251 10.7156 460.281 10.6675 458.35L7.66844 458.425C7.71638 460.351 7.76032 462.315 7.79946 464.318L10.7989 464.26ZM10.5056 452.451C10.4456 450.446 10.3819 448.482 10.3155 446.555L7.31728 446.659C7.38356 448.581 7.44713 450.54 7.50699 452.54L10.5056 452.451ZM10.1003 440.659C10.0234 438.653 9.94445 436.687 9.86484 434.758L6.86739 434.882C6.94691 436.809 7.02572 438.771 7.10255 440.774L10.1003 440.659ZM9.61563 428.854C9.5295 426.847 9.44479 424.893 9.36176 422.957L6.36452 423.086C6.44714 425.012 6.53274 426.987 6.61839 428.983L9.61563 428.854ZM9.1137 417.056C9.03222 415.06 8.95533 413.096 8.88495 411.158L5.88693 411.267C5.95751 413.21 6.03459 415.179 6.11619 417.178L9.1137 417.056ZM8.69091 405.265C8.63332 403.284 8.58509 401.324 8.54845 399.379L5.54898 399.435C5.58584 401.392 5.63433 403.362 5.69218 405.353L8.69091 405.265ZM8.475 393.497C8.46391 391.532 8.46728 389.576 8.48749 387.62L5.48765 387.589C5.46726 389.562 5.46387 391.535 5.47505 393.514L8.475 393.497ZM8.60105 381.744C8.65688 379.797 8.73162 377.844 8.8276 375.876L5.83116 375.729C5.73417 377.718 5.65867 379.692 5.60229 381.658L8.60105 381.744ZM9.17477 370.019C9.30949 368.092 9.466 366.144 9.64638 364.171L6.65883 363.898C6.47648 365.893 6.31827 367.861 6.18208 369.81L9.17477 370.019ZM10.2422 358.332C10.4574 356.421 10.6956 354.481 10.9585 352.506L7.98477 352.11C7.71923 354.105 7.47856 356.065 7.26103 357.997L10.2422 358.332ZM11.7893 346.692C12.0787 344.794 12.3907 342.862 12.7269 340.892L9.76957 340.387C9.43054 342.375 9.11568 344.324 8.82361 346.239L11.7893 346.692ZM13.7628 335.105C14.1163 333.218 14.4914 331.294 14.8892 329.33L11.9489 328.735C11.5483 330.712 11.1704 332.651 10.8141 334.553L13.7628 335.105ZM16.0987 323.561C16.5071 321.675 16.9356 319.752 17.3853 317.791L14.4611 317.12C14.0088 319.094 13.5776 321.028 13.1667 322.926L16.0987 323.561ZM18.7252 312.088C19.1739 310.223 19.6409 308.324 20.1268 306.387L17.217 305.657C16.7288 307.603 16.2595 309.512 15.8085 311.387L18.7252 312.088ZM21.5881 300.672C22.0771 298.794 22.5833 296.881 23.1071 294.933L20.21 294.154C19.6842 296.11 19.1759 298.03 18.6848 299.916L21.5881 300.672ZM24.6446 289.296C24.9088 288.341 25.1771 287.377 25.4495 286.405L22.5607 285.595C22.2874 286.571 22.0182 287.538 21.7531 288.496L24.6446 289.296ZM25.4495 286.405C25.72 285.439 26.0032 284.48 26.2988 283.528L23.4337 282.638C23.1298 283.617 22.8388 284.603 22.5607 285.595L25.4495 286.405ZM28.221 277.895C28.9164 276.029 29.6613 274.189 30.4546 272.376L27.7062 271.173C26.8906 273.037 26.1248 274.929 25.4098 276.847L28.221 277.895ZM32.9904 266.991C33.8855 265.219 34.8285 263.472 35.8183 261.751L33.2177 260.256C32.2011 262.023 31.2323 263.818 30.3125 265.639L32.9904 266.991ZM38.9285 256.661C40.0043 255 41.1254 253.364 42.2905 251.752L39.8589 249.995C38.6645 251.648 37.5146 253.326 36.4106 255.03L38.9285 256.661ZM45.9087 246.997C47.1435 245.453 48.4201 243.933 49.7374 242.435L47.4846 240.454C46.1372 241.986 44.8306 243.542 43.5662 245.123L45.9087 246.997ZM53.7866 238.033C55.157 236.607 56.5656 235.202 58.0113 233.819L55.9369 231.651C54.4618 233.063 53.0237 234.497 51.6237 235.954L53.7866 238.033ZM62.4167 229.767C63.8997 228.455 65.4172 227.163 66.9684 225.889L65.0649 223.57C63.4861 224.866 61.9404 226.183 60.4291 227.519L62.4167 229.767ZM71.6642 222.17C73.2388 220.966 74.8445 219.78 76.4801 218.611L74.736 216.17C73.0747 217.357 71.4431 218.563 69.842 219.787L71.6642 222.17ZM81.4126 215.199C83.0606 214.096 84.7362 213.008 86.4386 211.936L84.8402 209.397C83.1146 210.484 81.4153 211.587 79.7431 212.707L81.4126 215.199ZM91.5657 208.803C93.2717 207.791 95.0023 206.794 96.7565 205.811L95.2902 203.194C93.5149 204.188 91.7629 205.198 90.0351 206.223L91.5657 208.803ZM102.046 202.929C103.797 202 105.571 201.085 107.365 200.183L106.018 197.502C104.204 198.414 102.412 199.339 100.641 200.278L102.046 202.929ZM112.792 197.524C114.579 196.671 116.385 195.83 118.211 195.001L116.97 192.27C115.128 193.106 113.304 193.955 111.499 194.817L112.792 197.524ZM123.741 192.549C125.561 191.762 127.397 190.986 129.251 190.221L128.106 187.448C126.237 188.219 124.385 189.002 122.55 189.796L123.741 192.549ZM134.846 187.963C136.7 187.232 138.569 186.511 140.453 185.8L139.394 182.993C137.496 183.709 135.613 184.435 133.745 185.172L134.846 187.963ZM146.097 183.717C147.981 183.036 149.878 182.365 151.789 181.703L150.808 178.868C148.885 179.534 146.974 180.21 145.077 180.895L146.097 183.717ZM157.471 179.776C159.378 179.143 161.296 178.518 163.226 177.902L162.315 175.044C160.373 175.664 158.443 176.292 156.525 176.929L157.471 179.776ZM168.951 176.112C170.866 175.524 172.791 174.945 174.727 174.374L173.878 171.496C171.932 172.071 169.996 172.653 168.071 173.244L168.951 176.112ZM180.519 172.696C182.441 172.15 184.372 171.612 186.312 171.08L185.52 168.187C183.571 168.721 181.63 169.262 179.699 169.811L180.519 172.696ZM192.159 169.508C194.088 168.999 196.025 168.496 197.969 168L197.228 165.093C195.275 165.591 193.33 166.096 191.393 166.607L192.159 169.508ZM203.824 166.534C205.771 166.054 207.725 165.581 209.687 165.114L208.992 162.196C207.024 162.664 205.061 163.139 203.106 163.621L203.824 166.534ZM215.548 163.742C217.509 163.291 219.475 162.846 221.447 162.406L220.795 159.478C218.816 159.919 216.843 160.366 214.875 160.819L215.548 163.742ZM227.324 161.118C229.286 160.694 231.253 160.277 233.225 159.864L232.611 156.928C230.633 157.341 228.659 157.761 226.691 158.185L227.324 161.118ZM239.14 158.646C241.105 158.247 243.074 157.853 245.046 157.465L244.467 154.521C242.488 154.911 240.514 155.306 238.543 155.705L239.14 158.646ZM250.976 156.314C252.948 155.937 254.923 155.564 256.901 155.196L256.353 152.247C254.37 152.616 252.39 152.989 250.413 153.367L250.976 156.314ZM262.834 154.108C264.814 153.75 266.796 153.396 268.781 153.047L268.26 150.092C266.272 150.443 264.285 150.797 262.3 151.156L262.834 154.108ZM274.721 152.014C276.703 151.674 278.687 151.338 280.672 151.006L280.177 148.047C278.188 148.38 276.2 148.717 274.214 149.058L274.721 152.014ZM286.627 150.022C288.612 149.698 290.599 149.378 292.585 149.061L292.113 146.098C290.122 146.416 288.133 146.737 286.144 147.061L286.627 150.022ZM298.546 148.121C300.535 147.811 302.525 147.504 304.514 147.2L304.062 144.235C302.069 144.539 300.077 144.846 298.084 145.157L298.546 148.121ZM310.482 146.299C312.473 146.002 314.463 145.707 316.451 145.416L316.016 142.448C314.025 142.74 312.032 143.034 310.039 143.332L310.482 146.299ZM322.431 144.548C324.423 144.261 326.414 143.977 328.403 143.696L327.983 140.726C325.992 141.007 323.999 141.291 322.004 141.578L322.431 144.548ZM334.386 142.857C336.383 142.58 338.378 142.304 340.37 142.031L339.962 139.059C337.968 139.332 335.971 139.608 333.972 139.886L334.386 142.857ZM346.338 141.219C348.342 140.948 350.342 140.679 352.34 140.413L351.943 137.439C349.944 137.706 347.941 137.975 345.936 138.246L346.338 141.219ZM358.32 139.619C360.32 139.354 362.315 139.092 364.306 138.832L363.917 135.857C361.925 136.118 359.928 136.38 357.927 136.644L358.32 139.619ZM370.305 138.05C372.299 137.791 374.289 137.533 376.273 137.277L375.889 134.302C373.904 134.558 371.914 134.815 369.918 135.075L370.305 138.05ZM382.286 136.503C384.287 136.245 386.282 135.989 388.271 135.734L387.89 132.759C385.901 133.014 383.905 133.27 381.903 133.527L382.286 136.503ZM394.257 134.967C396.267 134.71 398.27 134.453 400.265 134.197L399.883 131.221C397.888 131.477 395.886 131.734 393.876 131.991L394.257 134.967ZM406.226 133.431C408.243 133.171 410.251 132.912 412.25 132.653L411.865 129.678C409.867 129.937 407.859 130.196 405.843 130.455L406.226 133.431ZM418.23 131.876C419.222 131.746 420.211 131.617 421.198 131.487L420.808 128.513C419.822 128.642 418.833 128.771 417.842 128.901L418.23 131.876ZM421.198 131.487C422.23 131.352 423.256 131.212 424.275 131.068L423.855 128.098C422.846 128.24 421.83 128.379 420.808 128.513L421.198 131.487ZM430.315 130.154C432.356 129.823 434.371 129.475 436.36 129.11L435.819 126.159C433.85 126.521 431.856 126.865 429.835 127.192L430.315 130.154ZM442.334 127.947C444.368 127.528 446.374 127.09 448.352 126.635L447.679 123.712C445.724 124.162 443.74 124.594 441.728 125.009L442.334 127.947ZM454.268 125.2C456.279 124.687 458.259 124.156 460.209 123.606L459.395 120.719C457.469 121.261 455.513 121.787 453.527 122.293L454.268 125.2ZM466.084 121.869C468.048 121.26 469.981 120.633 471.882 119.988L470.918 117.147C469.042 117.784 467.135 118.403 465.196 119.004L466.084 121.869ZM477.691 117.925C479.628 117.206 481.531 116.468 483.4 115.712L482.275 112.931C480.433 113.676 478.558 114.404 476.647 115.113L477.691 117.925ZM489.027 113.337C490.932 112.499 492.799 111.642 494.629 110.766L493.334 108.06C491.533 108.922 489.694 109.766 487.819 110.591L489.027 113.337ZM500.121 108.028C501.955 107.076 503.749 106.106 505.504 105.118L504.032 102.504C502.307 103.475 500.543 104.429 498.739 105.366L500.121 108.028ZM510.802 102.013C512.577 100.93 514.31 99.8295 516 98.7123L514.346 96.2096C512.686 97.3067 510.984 98.388 509.24 99.4519L510.802 102.013ZM521.063 95.2286C522.748 94.0213 524.389 92.7976 525.984 91.5591L524.145 89.1892C522.58 90.404 520.97 91.6047 519.316 92.7895L521.063 95.2286ZM530.757 87.7022C532.343 86.3668 533.882 85.017 535.373 83.6548L533.349 81.4398C531.888 82.7747 530.38 84.0977 528.825 85.4069L530.757 87.7022ZM539.834 79.4061C541.31 77.9399 542.735 76.4621 544.109 74.9752L541.906 72.9388C540.561 74.3945 539.166 75.8415 537.72 77.2776L539.834 79.4061ZM548.189 70.3652C549.534 68.777 550.824 67.1812 552.061 65.5808L549.688 63.7457C548.478 65.3111 547.215 66.8724 545.899 68.4267L548.189 70.3652ZM555.716 60.6276C556.915 58.9234 558.056 57.2173 559.142 55.5126L556.611 53.9013C555.55 55.5674 554.435 57.2353 553.262 58.9015L555.716 60.6276ZM562.326 50.2444C563.363 48.4335 564.339 46.6282 565.256 44.8324L562.585 43.4676C561.689 45.221 560.736 46.9843 559.722 48.7534L562.326 50.2444ZM567.921 39.288C568.784 37.3725 569.582 35.473 570.316 33.5948L567.522 32.5019C566.806 34.3333 566.028 36.1861 565.186 38.0554L567.921 39.288ZM572.416 27.7864C573.08 25.7842 573.673 23.8137 574.198 21.8817L571.303 21.095C570.792 22.9737 570.215 24.8915 569.568 26.8416L572.416 27.7864ZM575.64 15.8903C576.08 13.7913 576.437 11.7508 576.717 9.77887L573.747 9.35685C573.476 11.2628 573.131 13.2389 572.704 15.2753L575.64 15.8903ZM577.364 3.62605C577.434 2.56822 577.48 1.53694 577.503 0.534238L574.504 0.465762C574.482 1.42382 574.438 2.41175 574.371 3.42763L577.364 3.62605Z" fill="white"/>
</svg>
