<svg width="187" height="89" viewBox="0 0 187 89" fill="none" xmlns="http://www.w3.org/2000/svg">
<path d="M4.31472 0.0508143C3.7905 -0.122999 3.22463 0.161063 3.05081 0.685283L0.218364 9.22795C0.0445507 9.75218 0.328612 10.318 0.852833 10.4919C1.37705 10.6657 1.94292 10.3816 2.11674 9.85739L4.63447 2.2639L12.228 4.78164C12.7522 4.95545 13.318 4.67139 13.4919 4.14717C13.6657 3.62295 13.3816 3.05708 12.8574 2.88326L4.31472 0.0508143ZM3.10629 1.44864C13.6722 22.4966 35.5158 51.4586 66.7648 69.9975C98.0603 88.564 138.771 96.6581 186.896 75.9184L186.104 74.0816C138.629 94.5419 98.5897 86.5527 67.7852 68.2775C36.9342 49.9747 15.3278 21.3368 4.89371 0.551363L3.10629 1.44864Z" fill="#FD6109"/>
</svg>
