<svg width="85" height="86" viewBox="0 0 85 86" fill="none" xmlns="http://www.w3.org/2000/svg">
<path d="M20.753 22.4373C32.2156 10.4738 51.2062 10.0676 63.1697 21.5302C75.1332 32.9928 75.5394 51.9834 64.0768 63.9469C52.6142 75.9104 33.6236 76.3166 21.6601 64.854C9.69655 53.3914 9.29043 34.4008 20.753 22.4373Z" fill="#221C2B"/>
<path d="M50.7311 35.5682C49.2014 34.8663 47.561 34.3492 45.846 34.053C45.8147 34.0473 45.7835 34.0616 45.7674 34.0901C45.5565 34.4654 45.3228 34.9549 45.1592 35.3396C43.3145 35.0634 41.4792 35.0634 39.6724 35.3396C39.5087 34.9463 39.2665 34.4654 39.0546 34.0901C39.0385 34.0625 39.0073 34.0482 38.9761 34.053C37.262 34.3482 35.6216 34.8653 34.091 35.5682C34.0777 35.5739 34.0664 35.5834 34.0589 35.5958C30.9475 40.2441 30.0951 44.7783 30.5132 49.2561C30.5151 49.2781 30.5274 49.299 30.5445 49.3123C32.5973 50.8199 34.5858 51.7351 36.5373 52.3417C36.5686 52.3512 36.6017 52.3398 36.6215 52.3141C37.0832 51.6837 37.4947 51.0189 37.8475 50.3199C37.8684 50.279 37.8485 50.2304 37.8059 50.2142C37.1532 49.9666 36.5317 49.6647 35.9338 49.3219C35.8865 49.2942 35.8827 49.2266 35.9262 49.1942C36.052 49.0999 36.1779 49.0019 36.298 48.9028C36.3198 48.8847 36.35 48.8809 36.3756 48.8923C40.3033 50.6856 44.5556 50.6856 48.437 48.8923C48.4626 48.88 48.4929 48.8838 48.5155 48.9019C48.6357 49.0009 48.7615 49.0999 48.8883 49.1942C48.9318 49.2266 48.9289 49.2942 48.8817 49.3219C48.2838 49.6713 47.6623 49.9666 47.0086 50.2132C46.966 50.2294 46.9471 50.279 46.9679 50.3199C47.3283 51.018 47.7398 51.6827 48.193 52.3131C48.2119 52.3398 48.2459 52.3512 48.2772 52.3417C50.2382 51.7351 52.2267 50.8199 54.2795 49.3123C54.2975 49.299 54.3088 49.279 54.3107 49.2571C54.8111 44.0802 53.4726 39.5832 50.7623 35.5967C50.7557 35.5834 50.7443 35.5739 50.7311 35.5682Z" fill="white"/>
<path d="M36.2773 44.1103C36.2773 45.4436 37.2517 46.5293 38.4342 46.5293C39.6356 46.5293 40.5911 45.4436 40.5911 44.1103C40.61 42.7866 39.6451 41.6914 38.4342 41.6914C37.2328 41.6914 36.2773 42.7771 36.2773 44.1103Z" fill="#221C2B"/>
<path d="M44.2521 44.1103C44.2521 45.4436 45.2265 46.5293 46.409 46.5293C47.6198 46.5293 48.5659 45.4436 48.5659 44.1103C48.5847 42.7866 47.6198 41.6914 46.409 41.6914C45.2075 41.6914 44.2521 42.7771 44.2521 44.1103Z" fill="#221C2B"/>
</svg>
