<svg width="69" height="24" viewBox="0 0 69 24" fill="none" xmlns="http://www.w3.org/2000/svg">
<path d="M13.6711 10.7039V15.0898C13.6711 16.2048 14.2127 16.757 15.3384 16.757H15.8269C16.9419 16.757 17.4941 16.2154 17.4941 15.0898V12.9446H20.064V15.0048C20.064 17.819 18.641 19.2738 15.795 19.2738H15.2534C12.4392 19.2738 10.9844 17.8508 10.9844 15.334V4.55526C10.9844 1.40128 12.4074 -0.0429688 15.2534 -0.0429688H15.795C18.6092 -0.0429688 20.064 1.38004 20.064 4.22606V10.6721H13.6711V10.7039ZM13.6711 8.1234H17.4516V4.13048C17.4516 3.01544 16.91 2.46322 15.7844 2.46322H15.3596C14.2446 2.46322 13.6923 3.00482 13.6923 4.13048V8.1234H13.6711ZM21.8162 0.190659H24.4817V1.40128C25.1189 0.732251 26.2127 -0.0217301 27.7207 -0.0217301C29.9932 -0.0217301 31.1083 1.49685 31.1083 3.7057V15.5146C31.1083 17.7553 29.9932 19.242 27.7207 19.242C26.1808 19.242 25.1189 18.5199 24.4817 17.8827V23.9677H21.8162V0.190659ZM24.4711 15.7588C25.1932 16.396 26.0428 16.7252 26.9242 16.7252C27.8906 16.7252 28.464 16.2685 28.464 15.1853V4.03491C28.464 2.9411 27.9224 2.49508 26.9242 2.49508C26.0428 2.49508 25.1932 2.85615 24.4711 3.46146V15.7588ZM32.7118 12.488C32.7118 10.1517 33.4658 9.21721 35.4941 8.52694L39.0623 7.31632V4.1411C39.0623 3.02606 38.5207 2.41013 37.395 2.41013H36.9702C35.8552 2.41013 35.303 3.01544 35.303 4.1411V6.79597H32.733V4.22606C32.733 1.4119 34.1561 -0.0429688 37.0021 -0.0429688H37.5118C40.326 -0.0429688 41.7808 1.38004 41.7808 4.22606V19.0296H39.1154V17.8402C38.3932 18.5411 37.3844 19.2314 35.8764 19.2314C33.7525 19.2314 32.7543 18.0207 32.7543 15.8969V12.4774H32.7118V12.488ZM39.0729 15.8438V9.64198L36.6516 10.5553C35.6853 10.9482 35.3454 11.4367 35.3454 12.5199V15.3977C35.3454 16.311 35.8021 16.757 36.6516 16.757C37.4693 16.7252 38.1915 16.4491 39.0729 15.8438ZM52.4534 19.0296H49.7879V3.85438C49.7879 2.91986 49.3313 2.49508 48.5136 2.49508C47.7915 2.49508 46.995 2.77119 46.0605 3.4296V19.019H43.395V0.190659H46.0605V1.40128C46.8145 0.679154 47.8446 -0.0217301 49.2994 -0.0217301C50.6587 -0.0217301 51.572 0.519863 52.0499 1.51809C52.9844 0.700394 54.11 -0.0217301 55.6499 -0.0217301C57.71 -0.0217301 58.772 1.25261 58.772 3.31278V19.0615H56.1065V3.85438C56.1065 2.91986 55.6499 2.49508 54.8322 2.49508C54.11 2.49508 53.3136 2.77119 52.3791 3.4296V19.019H52.4534V19.0296Z" fill="white"/>
<path d="M7.60395 1.92273V5.40591L3.1544 9.64308L7.60395 13.8165V17.3634L0.796875 10.9387V8.40061L7.60395 1.92273ZM68.9845 8.40061V10.9387L62.1774 17.3528V13.8059L66.627 9.63247L62.1774 5.36344V1.91211L68.9845 8.40061Z" fill="#00B5D1"/>
</svg>
