<svg width="85" height="85" viewBox="0 0 85 85" fill="none" xmlns="http://www.w3.org/2000/svg">
<path d="M20.753 21.6619C32.2156 9.69836 51.2062 9.29225 63.1697 20.7548C75.1332 32.2174 75.5394 51.208 64.0768 63.1715C52.6142 75.1351 33.6236 75.5412 21.6601 64.0786C9.69655 52.616 9.29043 33.6254 20.753 21.6619Z" fill="#221C2B"/>
<path fill-rule="evenodd" clip-rule="evenodd" d="M36.2519 42.417C36.2519 39.0137 39.0108 36.2548 42.4141 36.2548C45.8174 36.2548 48.5762 39.0137 48.5762 42.417C48.5762 45.8203 45.8174 48.5792 42.4141 48.5792C39.0108 48.5792 36.2519 45.8203 36.2519 42.417ZM42.4141 46.417C40.2049 46.417 38.4141 44.6261 38.4141 42.417C38.4141 40.2078 40.2049 38.417 42.4141 38.417C44.6232 38.417 46.4141 40.2078 46.4141 42.417C46.4141 44.6261 44.6232 46.417 42.4141 46.417Z" fill="white"/>
<path fill-rule="evenodd" clip-rule="evenodd" d="M36.2519 42.417C36.2519 39.0137 39.0108 36.2548 42.4141 36.2548C45.8174 36.2548 48.5762 39.0137 48.5762 42.417C48.5762 45.8203 45.8174 48.5792 42.4141 48.5792C39.0108 48.5792 36.2519 45.8203 36.2519 42.417ZM42.4141 46.417C40.2049 46.417 38.4141 44.6261 38.4141 42.417C38.4141 40.2078 40.2049 38.417 42.4141 38.417C44.6232 38.417 46.4141 40.2078 46.4141 42.417C46.4141 44.6261 44.6232 46.417 42.4141 46.417Z" fill="white"/>
<path d="M48.8197 37.4514C49.615 37.4514 50.2597 36.8067 50.2597 36.0114C50.2597 35.2161 49.615 34.5714 48.8197 34.5714C48.0244 34.5714 47.3797 35.2161 47.3797 36.0114C47.3797 36.8067 48.0244 37.4514 48.8197 37.4514Z" fill="white"/>
<path d="M48.8197 37.4514C49.615 37.4514 50.2597 36.8067 50.2597 36.0114C50.2597 35.2161 49.615 34.5714 48.8197 34.5714C48.0244 34.5714 47.3797 35.2161 47.3797 36.0114C47.3797 36.8067 48.0244 37.4514 48.8197 37.4514Z" fill="white"/>
<path fill-rule="evenodd" clip-rule="evenodd" d="M42.4141 30.417C39.1551 30.417 38.7464 30.4308 37.4665 30.4892C36.1892 30.5475 35.3169 30.7503 34.5536 31.047C33.7645 31.3536 33.0953 31.7639 32.4281 32.4311C31.761 33.0982 31.3507 33.7674 31.0441 34.5565C30.7474 35.3198 30.5445 36.1921 30.4863 37.4694C30.4279 38.7493 30.4141 39.158 30.4141 42.417C30.4141 45.676 30.4279 46.0846 30.4863 47.3646C30.5445 48.6418 30.7474 49.5142 31.0441 50.2774C31.3507 51.0666 31.761 51.7358 32.4281 52.4029C33.0953 53.07 33.7645 53.4804 34.5536 53.787C35.3169 54.0836 36.1892 54.2865 37.4665 54.3448C38.7464 54.4032 39.1551 54.417 42.4141 54.417C45.6731 54.417 46.0817 54.4032 47.3616 54.3448C48.6389 54.2865 49.5112 54.0836 50.2745 53.787C51.0636 53.4804 51.7328 53.07 52.4 52.4029C53.0671 51.7358 53.4774 51.0666 53.7841 50.2774C54.0807 49.5142 54.2836 48.6418 54.3418 47.3646C54.4002 46.0846 54.4141 45.676 54.4141 42.417C54.4141 39.158 54.4002 38.7493 54.3418 37.4694C54.2836 36.1921 54.0807 35.3198 53.7841 34.5565C53.4774 33.7674 53.0671 33.0982 52.4 32.4311C51.7328 31.7639 51.0636 31.3536 50.2745 31.047C49.5112 30.7503 48.6389 30.5475 47.3616 30.4892C46.0817 30.4308 45.6731 30.417 42.4141 30.417ZM42.4141 32.5792C45.6182 32.5792 45.9977 32.5914 47.2631 32.6491C48.4331 32.7025 49.0685 32.898 49.4913 33.0623C50.0515 33.28 50.4512 33.54 50.8711 33.96C51.291 34.3799 51.5511 34.7796 51.7688 35.3397C51.9331 35.7626 52.1286 36.398 52.1819 37.568C52.2397 38.8333 52.2519 39.2129 52.2519 42.417C52.2519 45.6211 52.2397 46.0007 52.1819 47.266C52.1286 48.436 51.9331 49.0714 51.7688 49.4942C51.5511 50.0544 51.291 50.4541 50.8711 50.874C50.4512 51.294 50.0515 51.554 49.4913 51.7717C49.0685 51.936 48.4331 52.1315 47.2631 52.1849C45.9979 52.2426 45.6184 52.2548 42.4141 52.2548C39.2097 52.2548 38.8302 52.2426 37.565 52.1849C36.395 52.1315 35.7597 51.936 35.3368 51.7717C34.7767 51.554 34.3769 51.294 33.957 50.874C33.5371 50.4541 33.2771 50.0544 33.0594 49.4942C32.895 49.0714 32.6995 48.436 32.6462 47.266C32.5885 46.0007 32.5762 45.6211 32.5762 42.417C32.5762 39.2129 32.5885 38.8333 32.6462 37.568C32.6995 36.398 32.895 35.7626 33.0594 35.3397C33.2771 34.7796 33.5371 34.3799 33.957 33.96C34.3769 33.54 34.7767 33.28 35.3368 33.0623C35.7597 32.898 36.395 32.7025 37.565 32.6491C38.8304 32.5914 39.2099 32.5792 42.4141 32.5792Z" fill="white"/>
<path fill-rule="evenodd" clip-rule="evenodd" d="M42.4141 30.417C39.1551 30.417 38.7464 30.4308 37.4665 30.4892C36.1892 30.5475 35.3169 30.7503 34.5536 31.047C33.7645 31.3536 33.0953 31.7639 32.4281 32.4311C31.761 33.0982 31.3507 33.7674 31.0441 34.5565C30.7474 35.3198 30.5445 36.1921 30.4863 37.4694C30.4279 38.7493 30.4141 39.158 30.4141 42.417C30.4141 45.676 30.4279 46.0846 30.4863 47.3646C30.5445 48.6418 30.7474 49.5142 31.0441 50.2774C31.3507 51.0666 31.761 51.7358 32.4281 52.4029C33.0953 53.07 33.7645 53.4804 34.5536 53.787C35.3169 54.0836 36.1892 54.2865 37.4665 54.3448C38.7464 54.4032 39.1551 54.417 42.4141 54.417C45.6731 54.417 46.0817 54.4032 47.3616 54.3448C48.6389 54.2865 49.5112 54.0836 50.2745 53.787C51.0636 53.4804 51.7328 53.07 52.4 52.4029C53.0671 51.7358 53.4774 51.0666 53.7841 50.2774C54.0807 49.5142 54.2836 48.6418 54.3418 47.3646C54.4002 46.0846 54.4141 45.676 54.4141 42.417C54.4141 39.158 54.4002 38.7493 54.3418 37.4694C54.2836 36.1921 54.0807 35.3198 53.7841 34.5565C53.4774 33.7674 53.0671 33.0982 52.4 32.4311C51.7328 31.7639 51.0636 31.3536 50.2745 31.047C49.5112 30.7503 48.6389 30.5475 47.3616 30.4892C46.0817 30.4308 45.6731 30.417 42.4141 30.417ZM42.4141 32.5792C45.6182 32.5792 45.9977 32.5914 47.2631 32.6491C48.4331 32.7025 49.0685 32.898 49.4913 33.0623C50.0515 33.28 50.4512 33.54 50.8711 33.96C51.291 34.3799 51.5511 34.7796 51.7688 35.3397C51.9331 35.7626 52.1286 36.398 52.1819 37.568C52.2397 38.8333 52.2519 39.2129 52.2519 42.417C52.2519 45.6211 52.2397 46.0007 52.1819 47.266C52.1286 48.436 51.9331 49.0714 51.7688 49.4942C51.5511 50.0544 51.291 50.4541 50.8711 50.874C50.4512 51.294 50.0515 51.554 49.4913 51.7717C49.0685 51.936 48.4331 52.1315 47.2631 52.1849C45.9979 52.2426 45.6184 52.2548 42.4141 52.2548C39.2097 52.2548 38.8302 52.2426 37.565 52.1849C36.395 52.1315 35.7597 51.936 35.3368 51.7717C34.7767 51.554 34.3769 51.294 33.957 50.874C33.5371 50.4541 33.2771 50.0544 33.0594 49.4942C32.895 49.0714 32.6995 48.436 32.6462 47.266C32.5885 46.0007 32.5762 45.6211 32.5762 42.417C32.5762 39.2129 32.5885 38.8333 32.6462 37.568C32.6995 36.398 32.895 35.7626 33.0594 35.3397C33.2771 34.7796 33.5371 34.3799 33.957 33.96C34.3769 33.54 34.7767 33.28 35.3368 33.0623C35.7597 32.898 36.395 32.7025 37.565 32.6491C38.8304 32.5914 39.2099 32.5792 42.4141 32.5792Z" fill="white"/>
</svg>
