<svg width="74" height="74" viewBox="0 0 74 74" fill="none" xmlns="http://www.w3.org/2000/svg">
<path d="M7.70911 28.9926C11.9666 12.9804 28.3984 3.45138 44.4106 7.70886C60.4228 11.9664 69.9519 28.3982 65.6944 44.4104C61.4369 60.4226 45.0051 69.9516 28.9929 65.6942C12.9807 61.4367 3.45162 45.0048 7.70911 28.9926Z" fill="#221C2B"/>
<path d="M46.9251 24.703L26.4741 24.703C25.5076 24.6921 24.7149 25.4663 24.7031 26.4329L24.7031 46.9691C24.7145 47.9362 25.5071 48.7112 26.4741 48.701L46.9251 48.701C47.894 48.713 48.6897 47.9381 48.7031 46.9691L48.7031 26.4314C48.6893 25.4629 47.8936 24.6887 46.9251 24.7013" fill="white"/>
<path d="M41.594 45.1502L45.1501 45.1502L45.1515 38.8677C45.1515 35.7835 44.487 33.4128 40.8828 33.4128C39.505 33.3616 38.2106 34.0725 37.5146 35.2627L37.4668 35.2627L37.4668 33.6976L34.053 33.6976L34.053 45.1499L37.609 45.1499L37.609 39.4845C37.609 37.9906 37.8924 36.5437 39.7445 36.5437C41.5703 36.5437 41.594 38.2532 41.594 39.5812L41.594 45.1502Z" fill="#221C2B"/>
<path d="M27.9766 30.0689C27.9768 31.2086 28.9008 32.1324 30.0406 32.1322C30.5879 32.1321 31.1127 31.9146 31.4996 31.5275C31.8866 31.1404 32.1039 30.6155 32.1038 30.0682C32.1036 28.9284 31.1795 28.0047 30.0398 28.0049C28.9001 28.0051 27.9764 28.9292 27.9766 30.0689Z" fill="#221C2B"/>
<path d="M28.2588 45.1502L31.8186 45.1502L31.8186 33.6976L28.2588 33.6976L28.2588 45.1502Z" fill="#221C2B"/>
</svg>
