<svg width="30" height="33" viewBox="0 0 30 33" fill="none" xmlns="http://www.w3.org/2000/svg">
<path d="M14.5516 2.72759C15.1951 2.71292 15.85 2.76051 16.5096 2.87501C20.504 3.56852 23.2331 5.96239 24.4661 9.80778C25.6759 13.5771 24.7593 16.964 22.0764 19.8717C20.9274 21.1199 19.4396 21.8211 17.9495 22.5233C17.7178 22.6325 17.486 22.7418 17.2554 22.8531C16.8167 23.065 16.4082 23.3399 16.0002 23.6143C15.867 23.7039 15.734 23.7934 15.5999 23.8807C15.2952 24.0788 15.3067 24.2931 15.4568 24.6502C16.0457 25.4364 16.1991 26.2514 16.3664 27.1407C16.386 27.2449 16.4058 27.3502 16.4265 27.4565C16.4347 27.5209 16.4408 27.5682 16.4452 27.6157C16.4576 27.7479 16.4576 27.8813 16.4576 28.3857C16.5771 28.2065 16.6389 28.1105 16.6756 28.0535C16.7091 28.0016 16.7217 27.982 16.7382 27.9611C18.3175 25.9267 20.377 24.9935 22.9676 25.1433C24.2513 25.217 25.5466 25.1963 26.8281 25.1087C27.9202 25.035 28.2388 24.3784 27.784 23.3992C27.5161 22.8231 27.3522 22.2494 27.777 21.6619C28.2111 21.0583 28.5367 20.4431 27.8648 19.9708C27.9106 19.8062 27.9715 19.6488 28.0288 19.5007C28.1449 19.2008 28.246 18.9394 28.1765 18.7358C27.9479 18.0631 28.285 17.7428 28.7144 17.3926C28.8221 17.3051 28.9206 17.207 29.0191 17.109C29.1255 17.0031 29.2318 16.8972 29.3494 16.8051C29.7534 16.4871 29.8135 16.0839 29.5733 15.6807C29.2709 15.1738 28.943 14.6692 28.5482 14.2338C27.4723 13.0449 26.8535 11.6648 26.5233 10.1027C26.2947 9.02211 26.0361 7.89085 25.5028 6.9439C23.1927 2.85585 19.2954 0.314986 14.4609 0.510536C14.3092 0.828801 14.1719 1.20594 14.1719 1.52857C14.1719 1.91499 14.3688 2.37959 14.5516 2.72759Z" fill="white"/>
<path d="M13.9903 0.538086C13.5586 0.570999 13.1197 0.625504 12.6741 0.70242C7.77696 1.54799 4.00885 5.35192 3.14302 10.2065C2.86364 11.7663 2.18252 13.1049 1.12043 14.2731C0.762549 14.667 0.443922 15.1094 0.171473 15.5679C-0.0986676 16.0241 -0.0663431 16.478 0.388509 16.8512C0.730225 17.13 1.05809 17.4295 1.35824 17.7521C1.48754 17.888 1.63762 18.1415 1.58913 18.2774C1.37671 18.8903 1.51756 19.3995 1.97703 19.8741C1.41366 20.3234 1.32823 20.8303 1.74614 21.3579C2.31182 22.0744 2.26102 22.7795 1.84773 23.549C1.48292 24.231 1.73921 24.7978 2.47806 25.0351C2.72973 25.1157 3.00448 25.1641 3.27001 25.1641C4.57684 25.1664 5.88367 25.1664 7.1905 25.1319C9.12074 25.0835 10.7693 25.7401 12.1616 27.0511C13.5238 28.3298 14.0941 30.0187 14.5697 31.7536C14.6104 31.8988 14.6628 32.0408 14.7282 32.2184C14.7593 32.3029 14.7934 32.3954 14.8306 32.5001V32.4978C15.7634 30.7398 16.0867 29.0003 15.7773 27.164C15.4263 25.0812 14.3157 23.5743 12.3116 22.7679C11.9396 22.6188 11.5781 22.4435 11.2164 22.2682C11.0416 22.1834 10.8668 22.0987 10.6908 22.0168C6.04991 19.8465 3.70639 14.7477 5.15637 9.97837C6.32379 6.1414 9.5034 3.42589 13.2571 2.8424C13.5367 2.79894 13.8194 2.76732 14.1047 2.74793C13.919 2.39785 13.7143 1.92263 13.7143 1.52866C13.7143 1.21526 13.8438 0.850428 13.9903 0.538086Z" fill="#5800C3"/>
<path d="M8.41957 16.337C6.62556 15.6297 6.52628 14.5007 6.75948 13.1414C6.81027 12.8511 6.77795 12.5285 6.70406 12.2382C6.39929 11.0194 6.83105 10.0355 7.98781 9.4918C8.31105 9.33974 8.37339 9.17615 8.35261 8.83746C8.26026 7.35368 8.73127 6.76385 10.1974 6.3906C10.366 6.34683 10.5553 6.17863 10.6315 6.01735C10.9732 5.30541 11.5019 4.87917 12.3031 4.93216C13.229 4.99437 14.0186 5.36762 14.4943 6.20628C14.5889 6.37217 14.5681 6.6164 14.5681 6.82376C14.5728 10.8512 14.5635 14.8786 14.5797 18.9083C14.5797 19.3829 14.3834 19.6986 14.0648 20.005C13.1944 20.8414 11.2133 20.9842 10.5691 19.5166C10.5068 19.3737 10.3106 19.2355 10.1512 19.194C8.60659 18.8115 8.15174 18.1526 8.38494 16.5905C8.39648 16.5167 8.40341 16.443 8.41726 16.337H8.41957ZM10.3521 10.0862C10.3937 9.48259 10.5276 9.00335 10.1305 8.52873C10.0081 8.38127 10.0866 7.8836 10.2482 7.73615C10.4075 7.59099 10.8739 7.57256 11.0471 7.70619C11.2179 7.83752 11.2572 8.23151 11.2341 8.50108C11.1995 8.89737 10.994 9.28214 10.9732 9.67843C10.9293 10.5516 11.5828 11.1207 12.474 11.0447C12.8503 11.0125 13.1182 11.1484 13.2151 11.5262C13.3098 11.8949 13.1736 12.2451 12.8134 12.2889C12.5525 12.3211 12.2269 12.1391 11.9891 11.9709C11.7259 11.7866 11.5643 11.4525 11.2964 11.2797C10.6523 10.865 9.96884 10.5056 9.30388 10.1208C8.51193 9.6623 7.75923 9.93648 7.37826 10.8627C7.78232 11.1023 8.17944 11.3719 8.60428 11.5838C8.94831 11.7543 9.05682 11.9894 9.04297 12.3603C9.0245 12.8626 8.95292 13.3695 9.33851 13.8303C9.44703 13.9616 9.31773 14.4685 9.14225 14.6067C8.97601 14.7357 8.4796 14.7104 8.35954 14.5629C8.20484 14.374 8.15405 13.9247 8.27642 13.7128C8.86749 12.6898 8.37108 11.6691 7.11966 11.5216C7.19586 11.9594 7.32054 12.3856 7.33208 12.8165C7.34363 13.252 7.2328 13.6897 7.19586 14.1275C7.18431 14.2772 7.22125 14.4339 7.2582 14.5814C7.50063 15.5398 8.43342 15.9615 9.29695 15.5076C9.60403 15.3463 9.91342 15.1919 10.2136 15.0191C10.3221 14.9569 10.4883 14.8417 10.4837 14.7611C10.4514 14.1689 10.7331 13.5446 10.2805 12.9916C10.0289 12.6852 10.0173 12.2912 10.359 12.0838C10.5691 11.9571 10.9755 11.9548 11.1879 12.0769C11.5296 12.2774 11.5019 12.6437 11.2918 12.9893C11.1879 13.1598 11.0448 13.3833 11.0817 13.5515C11.3657 14.897 10.7169 15.6205 9.51168 16.0006C9.4932 16.0052 9.47704 16.0168 9.46088 16.026C8.82824 16.3716 8.65046 17.2701 9.12147 17.9061C9.88803 17.4844 10.6384 17.0075 11.4396 16.6481C12.1346 16.3347 12.4809 15.9039 12.3101 15.1458C12.2546 14.8993 12.0676 14.6758 12.0399 14.4316C12.0076 14.1574 11.9914 13.7681 12.1484 13.6183C12.3077 13.4685 12.7695 13.4363 12.9473 13.563C13.1228 13.6897 13.259 14.2081 13.1505 14.3302C12.7233 14.8256 12.8411 15.3786 12.848 15.9154C12.8526 16.3071 12.7418 16.5375 12.3747 16.7287C11.4096 17.2287 10.4722 17.7793 9.52553 18.3116C9.52553 18.3623 9.52553 18.4129 9.52553 18.4636C9.82799 18.5374 10.1305 18.6549 10.4352 18.6733C10.7654 18.6917 10.934 18.7562 11.0217 19.1272C11.1579 19.7009 11.5989 20.0281 12.1854 20.0926C12.8249 20.1617 13.3629 19.952 13.8524 19.4014C13.229 19.1963 12.7903 18.7585 12.1161 18.9359C11.9406 18.982 11.525 18.6779 11.4742 18.4728C11.4234 18.2586 11.6312 17.8116 11.8136 17.754C12.0445 17.6826 12.5109 17.8208 12.6218 18.0143C12.9473 18.5811 13.4922 18.5996 14.0048 18.8484C14.0256 18.6549 14.0417 18.5627 14.0417 18.4682C14.044 14.5906 14.0463 10.7152 14.044 6.83758C14.044 6.24315 13.6862 5.87681 12.8803 5.67636C12.8803 6.55188 12.8596 7.40898 12.8919 8.26146C12.9034 8.54255 13.012 8.84207 13.1482 9.09321C13.3421 9.45724 13.3444 9.81206 13.0073 10.001C12.7972 10.1185 12.3955 10.107 12.1877 9.97795C11.8575 9.77059 11.8506 9.40425 12.1023 9.07247C12.2015 8.93884 12.3608 8.79599 12.3655 8.65314C12.3886 7.60251 12.377 6.55419 12.377 5.33536C11.9753 5.51969 11.5019 5.59341 11.4465 5.78695C11.1648 6.76846 10.3891 6.97813 9.56016 7.16245C9.47473 7.18088 9.39623 7.26152 9.32466 7.32603C8.74281 7.82831 8.66662 9.07247 9.2069 9.4342C9.53938 9.65769 9.90188 9.8351 10.3452 10.0839L10.3521 10.0862Z" fill="white"/>
<path d="M16.3344 14.3417C16.1127 14.1574 15.9442 14.0307 15.7941 13.8878C15.2446 13.3648 15.136 12.6598 15.6001 12.0792C15.9742 11.6115 15.898 11.1829 15.6301 10.759C15.3023 10.2383 15.2607 9.7337 15.5032 9.17613C15.5678 9.03098 15.5401 8.84666 15.5724 8.68307C15.6278 8.39046 15.6371 8.06559 15.7733 7.81215C15.9649 7.45734 16.025 7.17394 15.801 6.8053C15.5193 6.3445 15.6625 5.93669 16.0665 5.58648C16.9647 4.81233 17.2348 4.90219 18.3223 5.3146C19.2112 5.65099 19.7631 6.3468 20.5158 6.81221C20.6266 6.88133 20.742 6.98271 20.7951 7.09561C21.1923 7.95039 21.6171 8.79827 21.9519 9.6784C22.2798 10.5424 22.5776 11.4295 22.7715 12.3326C22.9493 13.1621 23.0509 14.0491 23.0371 14.867C23.0232 15.6781 22.6238 16.6135 22.0974 17.2471C21.5825 17.8669 21.0653 18.3507 20.9314 19.217C20.8482 19.7654 20.1902 19.9082 19.6545 19.899C18.9503 19.8829 18.3131 19.9566 17.7035 20.3875C17.2325 20.7215 16.6576 20.7261 16.1104 20.4566C15.4385 20.1248 15.2376 19.664 15.4547 18.9497C15.4985 18.8023 15.4847 18.6318 15.4754 18.4751C15.4639 18.2678 15.3369 17.9982 15.4247 17.8646C15.8079 17.2839 15.5424 16.6849 15.547 16.0951C15.5516 15.4177 15.6417 14.791 16.332 14.344L16.3344 14.3417ZM19.0173 15.6251C19.2182 15.5122 19.4167 15.3993 19.6176 15.2864C20.0517 15.0444 20.2041 14.632 20.0055 14.2219C19.703 13.5906 19.1443 13.3902 18.4839 13.6436C18.3546 13.692 18.0706 13.6736 18.0499 13.616C17.789 12.9225 17.2602 13.0561 16.75 13.1805C16.586 13.2197 16.3528 13.351 16.3274 13.4731C16.302 13.6021 16.4544 13.8325 16.5906 13.9132C16.9162 14.109 17.281 14.2427 17.6296 14.4016C18.2276 14.6781 18.6132 15.2587 18.4978 15.7518C18.4724 15.8578 18.35 15.9407 18.2715 16.0352C18.1976 15.943 18.1007 15.8601 18.0568 15.7541C18.0152 15.6527 18.0452 15.526 18.0175 15.4154C17.8998 14.9569 17.5373 14.7795 17.1194 14.7242C16.7223 14.6712 16.3274 14.7311 16.152 15.1643C15.898 15.7956 15.8495 16.466 16.2074 17.0466C16.3667 17.3047 16.78 17.5028 17.0963 17.5305C17.2995 17.5489 17.5673 17.2333 17.7428 17.0167C17.9113 16.807 17.9968 16.5328 18.1307 16.2656C18.2138 16.2886 18.2969 16.2886 18.3523 16.3301C19.4952 17.1918 20.2018 17.0305 20.7374 15.7449C20.8806 15.3993 21.0445 15.473 21.3193 15.5605C21.5663 15.6389 21.9542 15.7034 22.0997 15.5721C22.4067 15.2979 22.8131 14.9615 22.6076 14.4477C22.3952 13.9178 22.0489 13.4201 22.4437 12.8326C22.4598 12.8073 22.4437 12.7566 22.4321 12.7197C22.2751 12.2197 22.1158 11.7221 21.9634 11.2474C21.6333 11.3212 21.3123 11.3695 21.0076 11.464C20.6866 11.5631 20.3865 11.7267 20.0655 11.8234C19.9085 11.8718 19.7261 11.8304 19.5553 11.8304C19.6661 11.7013 19.7515 11.5308 19.8877 11.4502C20.8044 10.911 20.8736 10.077 20.0055 9.448C19.7377 9.25447 19.3729 9.19686 19.0635 9.05171C18.9665 9.00563 18.9042 8.88122 18.828 8.79366C18.9226 8.74528 19.0127 8.67155 19.1143 8.65312C19.202 8.63699 19.3036 8.67616 19.3983 8.69459C20.4742 8.89043 20.9937 9.57933 21.1415 11.1806C21.4162 10.8903 21.788 10.6576 21.7579 10.5009C21.6517 9.94567 21.504 9.35354 21.1969 8.89274C20.6427 8.06099 20.3957 6.98501 19.4029 6.47583C19.3706 6.4597 19.359 6.40901 19.3267 6.39058C19.1258 6.27307 18.9226 6.16018 18.7218 6.04498C18.5878 6.28229 18.4262 6.51039 18.3292 6.76383C18.2808 6.89055 18.3754 7.06335 18.3662 7.21541C18.3593 7.36748 18.3085 7.51724 18.2761 7.6693C18.1607 7.54719 17.9483 7.42738 17.946 7.30297C17.939 6.803 17.9944 6.30303 18.0314 5.73393C17.341 5.18097 17.0501 5.21092 16.3944 6.00811C16.9531 6.2892 17.2856 6.72005 17.281 7.36748C17.2787 7.80063 17.4565 8.1255 17.9113 8.19692C18.3985 8.27065 18.7772 8.09785 18.978 7.61631C19.0381 7.47346 19.1281 7.34214 19.2043 7.2062C19.2713 7.22002 19.3382 7.23154 19.4052 7.24537C19.4052 7.42278 19.4467 7.6117 19.3983 7.77068C19.2112 8.37203 18.6409 8.69229 17.9344 8.62547C17.2741 8.56326 16.9139 8.21305 16.8354 7.51033C16.7915 7.10713 16.78 6.70392 16.1589 6.46661C16.5398 7.08869 16.4821 7.5495 16.1797 8.04025C16.1012 8.16928 16.2605 8.62317 16.4036 8.67616C16.9947 8.89043 17.341 9.31667 17.6527 9.81434C17.8998 10.2106 18.223 10.4203 18.7218 10.2268C18.8534 10.1761 19.0358 10.2521 19.2782 10.2798C18.6386 10.8627 18.0429 10.888 17.565 10.3973C17.2995 10.1254 17.1379 9.74522 16.8562 9.50099C16.6761 9.34663 16.3159 9.24064 16.1127 9.31667C15.9488 9.37888 15.8379 9.74061 15.8172 9.98023C15.7871 10.342 16.0781 10.3604 16.3713 10.3834C17.094 10.4364 17.6643 10.8857 17.8213 11.5032C17.8513 11.623 17.782 11.7681 17.7589 11.9018C17.6435 11.8304 17.5003 11.782 17.4195 11.6829C17.2787 11.5078 17.2187 11.2267 17.0455 11.1276C16.8862 11.0355 16.4798 11.047 16.429 11.1438C16.1727 11.6345 15.988 12.1667 15.7964 12.6897C15.7641 12.7796 15.8125 12.8994 15.8218 12.9893C15.8795 13.0054 15.9003 13.0215 15.9141 13.0146C16.7107 12.7151 17.5096 12.2382 18.2784 13.0814C18.3246 13.1321 18.4608 13.139 18.5417 13.1137C19.2251 12.9109 19.74 13.169 20.1764 13.6759C20.4373 13.9777 20.6705 13.9132 20.8783 13.6183C20.966 13.4938 21.0214 13.3418 21.1207 13.2289C21.1853 13.1552 21.3031 13.1321 21.3978 13.086C21.4301 13.1989 21.5271 13.351 21.4855 13.4201C21.3239 13.6966 21.1138 13.9431 20.9291 14.2081C20.7905 14.4062 20.5989 14.5929 20.5388 14.814C20.3541 15.4753 19.7307 15.9015 19.0196 15.6135L19.0173 15.6251ZM18.0845 18.2516C18.1214 18.2839 18.1584 18.3184 18.193 18.3507C17.8952 18.8 17.8767 19.2977 18.3962 19.4082C18.9526 19.5281 19.5737 19.452 20.1486 19.353C20.6012 19.2746 20.652 18.8415 20.6474 18.4313C20.6427 17.9959 20.2756 18.1433 20.0586 18.0512C19.9893 18.0212 19.8901 18.0397 19.8369 17.9959C19.6753 17.8623 19.5299 17.7125 19.3775 17.5673C19.5599 17.565 19.7561 17.5143 19.9247 17.5673C20.6843 17.7954 21.5986 17.489 21.848 16.8531C21.9219 16.6665 21.8988 16.2725 21.7926 16.2172C21.5455 16.0882 21.2384 15.92 20.9729 16.3531C20.3772 17.3277 19.5599 17.5328 18.4955 17.072C18.4308 17.0443 18.3593 17.0305 18.2946 17.0121C17.8097 17.9544 17.4011 18.141 16.3852 17.9406C16.2235 17.9083 16.0411 17.9752 15.868 17.9959C15.9164 18.1503 15.9857 18.3023 16.0088 18.459C16.0365 18.6479 16.1104 18.9152 16.018 19.0189C15.7433 19.3322 15.7548 19.5995 16.0227 19.8737C16.3828 20.2423 16.967 20.316 17.2787 20.0303C17.5765 19.7562 17.6804 19.4198 17.4403 19.0511C17.3341 18.8898 17.1979 18.747 17.0109 18.5166C17.4426 18.4106 17.7589 18.33 18.0776 18.2516H18.0845Z" fill="#5F19B9"/>
</svg>
