<svg width="74" height="75" viewBox="0 0 74 75" fill="none" xmlns="http://www.w3.org/2000/svg">
<path d="M7.70911 29.768C11.9666 13.7558 28.3984 4.22677 44.4106 8.48425C60.4228 12.7417 69.9519 29.1736 65.6944 45.1858C61.4369 61.198 45.0051 70.727 28.9929 66.4695C12.9807 62.2121 3.45162 45.7802 7.70911 29.768Z" fill="#221C2B"/>
<path fill-rule="evenodd" clip-rule="evenodd" d="M36.7033 25.4766C29.9426 25.4766 24.7031 30.4287 24.7031 37.117C24.7031 40.6156 26.1373 43.6386 28.4722 45.7271C28.6678 45.9034 28.7861 46.1472 28.7957 46.4104L28.8609 48.5449C28.8827 49.2258 29.5853 49.6676 30.2082 49.3948L32.5889 48.3445C32.7918 48.2551 33.0163 48.2382 33.2288 48.2962C34.3226 48.598 35.4888 48.7573 36.7033 48.7573C43.4639 48.7573 48.7034 43.8052 48.7034 37.117C48.7034 30.4287 43.4639 25.4766 36.7033 25.4766Z" fill="white"/>
<path fill-rule="evenodd" clip-rule="evenodd" d="M29.4997 40.5217L33.0249 34.9297C33.5851 34.0412 34.7875 33.819 35.6278 34.4492L38.431 36.5523C38.6894 36.7454 39.0419 36.743 39.2978 36.5499L43.0838 33.6766C43.5884 33.2927 44.25 33.8987 43.9096 34.4347L40.3868 40.0244C39.8266 40.9129 38.6242 41.135 37.7839 40.5048L34.9807 38.4018C34.7223 38.2086 34.3698 38.2111 34.1139 38.4042L30.3255 41.2799C29.8209 41.6638 29.1593 41.0578 29.4997 40.5217Z" fill="#26282E"/>
</svg>
