<svg width="234" height="471" viewBox="0 0 234 471" fill="none" xmlns="http://www.w3.org/2000/svg">
<path d="M229.664 74.4445H229.221V27.9271C229.221 12.5032 216.718 0 201.294 0H32.0166C16.5927 0 4.08951 12.5032 4.08951 27.9271V74.4445H3.64657C1.63361 74.4445 0 76.0759 0 78.0911V110.27C0 112.283 1.63142 113.917 3.64657 113.917H4.08951V121.591H3.64657C1.63361 121.591 0 123.223 0 125.238V157.417C0 159.43 1.63142 161.063 3.64657 161.063H4.08951V442.865C4.08951 458.289 16.5927 470.792 32.0166 470.792H201.294C216.718 470.792 229.221 458.289 229.221 442.865V133.649H229.664C231.677 133.649 233.311 132.018 233.311 130.003V78.0889C233.311 76.0759 231.679 74.4423 229.664 74.4423V74.4445Z" fill="#6952BC"/>
<path d="M198.415 6.90625H34.9007C22.3738 6.90625 12.2188 17.0613 12.2188 29.5882V441.197C12.2188 453.724 22.3738 463.879 34.9007 463.879H198.415C210.942 463.879 221.097 453.724 221.097 441.197V29.5882C221.097 17.0613 210.942 6.90625 198.415 6.90625Z" fill="#282248"/>
<path d="M83.0671 309V295H88.3071C89.4938 295 90.5138 295.193 91.3671 295.58C92.2204 295.953 92.8738 296.5 93.3271 297.22C93.7938 297.927 94.0271 298.787 94.0271 299.8C94.0271 300.787 93.7938 301.64 93.3271 302.36C92.8738 303.067 92.2204 303.613 91.3671 304C90.5138 304.387 89.4938 304.58 88.3071 304.58H83.8871L84.5471 303.88V309H83.0671ZM84.5471 304L83.8871 303.28H88.2671C89.6671 303.28 90.7271 302.98 91.4471 302.38C92.1804 301.767 92.5471 300.907 92.5471 299.8C92.5471 298.68 92.1804 297.813 91.4471 297.2C90.7271 296.587 89.6671 296.28 88.2671 296.28H83.8871L84.5471 295.58V304ZM96.6734 309V298.5H98.0334V301.36L97.8934 300.86C98.1867 300.06 98.68 299.453 99.3734 299.04C100.067 298.613 100.927 298.4 101.953 298.4V299.78C101.9 299.78 101.847 299.78 101.793 299.78C101.74 299.767 101.687 299.76 101.633 299.76C100.527 299.76 99.66 300.1 99.0334 300.78C98.4067 301.447 98.0934 302.4 98.0934 303.64V309H96.6734ZM104.544 309V298.5H105.964V309H104.544ZM105.264 296.18C104.971 296.18 104.724 296.08 104.524 295.88C104.324 295.68 104.224 295.44 104.224 295.16C104.224 294.88 104.324 294.647 104.524 294.46C104.724 294.26 104.971 294.16 105.264 294.16C105.558 294.16 105.804 294.253 106.004 294.44C106.204 294.627 106.304 294.86 106.304 295.14C106.304 295.433 106.204 295.68 106.004 295.88C105.818 296.08 105.571 296.18 105.264 296.18ZM112.616 309L107.956 298.5H109.436L113.716 308.24H113.016L117.356 298.5H118.756L114.076 309H112.616ZM127.023 309V306.68L126.963 306.3V302.42C126.963 301.527 126.71 300.84 126.203 300.36C125.71 299.88 124.97 299.64 123.983 299.64C123.303 299.64 122.656 299.753 122.043 299.98C121.43 300.207 120.91 300.507 120.483 300.88L119.843 299.82C120.376 299.367 121.016 299.02 121.763 298.78C122.51 298.527 123.296 298.4 124.123 298.4C125.483 298.4 126.53 298.74 127.263 299.42C128.01 300.087 128.383 301.107 128.383 302.48V309H127.023ZM123.403 309.1C122.616 309.1 121.93 308.973 121.343 308.72C120.77 308.453 120.33 308.093 120.023 307.64C119.716 307.173 119.563 306.64 119.563 306.04C119.563 305.493 119.69 305 119.943 304.56C120.21 304.107 120.636 303.747 121.223 303.48C121.823 303.2 122.623 303.06 123.623 303.06H127.243V304.12H123.663C122.65 304.12 121.943 304.3 121.543 304.66C121.156 305.02 120.963 305.467 120.963 306C120.963 306.6 121.196 307.08 121.663 307.44C122.13 307.8 122.783 307.98 123.623 307.98C124.423 307.98 125.11 307.8 125.683 307.44C126.27 307.067 126.696 306.533 126.963 305.84L127.283 306.82C127.016 307.513 126.55 308.067 125.883 308.48C125.23 308.893 124.403 309.1 123.403 309.1ZM136.6 309.1C135.56 309.1 134.626 308.873 133.8 308.42C132.986 307.953 132.346 307.32 131.88 306.52C131.413 305.707 131.18 304.78 131.18 303.74C131.18 302.687 131.413 301.76 131.88 300.96C132.346 300.16 132.986 299.533 133.8 299.08C134.626 298.627 135.56 298.4 136.6 298.4C137.493 298.4 138.3 298.573 139.02 298.92C139.74 299.267 140.306 299.787 140.72 300.48L139.66 301.2C139.3 300.667 138.853 300.273 138.32 300.02C137.786 299.767 137.206 299.64 136.58 299.64C135.833 299.64 135.16 299.813 134.56 300.16C133.96 300.493 133.486 300.967 133.14 301.58C132.793 302.193 132.62 302.913 132.62 303.74C132.62 304.567 132.793 305.287 133.14 305.9C133.486 306.513 133.96 306.993 134.56 307.34C135.16 307.673 135.833 307.84 136.58 307.84C137.206 307.84 137.786 307.713 138.32 307.46C138.853 307.207 139.3 306.82 139.66 306.3L140.72 307.02C140.306 307.7 139.74 308.22 139.02 308.58C138.3 308.927 137.493 309.1 136.6 309.1ZM143.433 312.98C142.94 312.98 142.466 312.9 142.013 312.74C141.573 312.58 141.193 312.34 140.873 312.02L141.533 310.96C141.8 311.213 142.086 311.407 142.393 311.54C142.713 311.687 143.066 311.76 143.453 311.76C143.92 311.76 144.32 311.627 144.653 311.36C145 311.107 145.326 310.653 145.633 310L146.313 308.46L146.473 308.24L150.793 298.5H152.193L146.933 310.26C146.64 310.94 146.313 311.48 145.953 311.88C145.606 312.28 145.226 312.56 144.813 312.72C144.4 312.893 143.94 312.98 143.433 312.98ZM146.233 309.3L141.393 298.5H142.873L147.153 308.14L146.233 309.3ZM40.4695 337V323H45.7095C46.8961 323 47.9161 323.193 48.7695 323.58C49.6228 323.953 50.2761 324.5 50.7295 325.22C51.1961 325.927 51.4295 326.787 51.4295 327.8C51.4295 328.787 51.1961 329.64 50.7295 330.36C50.2761 331.067 49.6228 331.613 48.7695 332C47.9161 332.387 46.8961 332.58 45.7095 332.58H41.2895L41.9495 331.88V337H40.4695ZM41.9495 332L41.2895 331.28H45.6695C47.0695 331.28 48.1295 330.98 48.8495 330.38C49.5828 329.767 49.9495 328.907 49.9495 327.8C49.9495 326.68 49.5828 325.813 48.8495 325.2C48.1295 324.587 47.0695 324.28 45.6695 324.28H41.2895L41.9495 323.58V332ZM54.0757 337V326.5H55.4357V329.36L55.2957 328.86C55.589 328.06 56.0824 327.453 56.7757 327.04C57.469 326.613 58.329 326.4 59.3557 326.4V327.78C59.3024 327.78 59.249 327.78 59.1957 327.78C59.1424 327.767 59.089 327.76 59.0357 327.76C57.929 327.76 57.0624 328.1 56.4357 328.78C55.809 329.447 55.4957 330.4 55.4957 331.64V337H54.0757ZM66.3091 337.1C65.2158 337.1 64.2558 336.873 63.4291 336.42C62.6025 335.953 61.9558 335.32 61.4891 334.52C61.0225 333.707 60.7891 332.78 60.7891 331.74C60.7891 330.7 61.0091 329.78 61.4491 328.98C61.9025 328.18 62.5158 327.553 63.2891 327.1C64.0758 326.633 64.9558 326.4 65.9291 326.4C66.9158 326.4 67.7891 326.627 68.5491 327.08C69.3225 327.52 69.9291 328.147 70.3691 328.96C70.8091 329.76 71.0291 330.687 71.0291 331.74C71.0291 331.807 71.0225 331.88 71.0091 331.96C71.0091 332.027 71.0091 332.1 71.0091 332.18H61.8691V331.12H70.2491L69.6891 331.54C69.6891 330.78 69.5225 330.107 69.1891 329.52C68.8691 328.92 68.4291 328.453 67.8691 328.12C67.3091 327.787 66.6625 327.62 65.9291 327.62C65.2091 327.62 64.5625 327.787 63.9891 328.12C63.4158 328.453 62.9691 328.92 62.6491 329.52C62.3291 330.12 62.1691 330.807 62.1691 331.58V331.8C62.1691 332.6 62.3425 333.307 62.6891 333.92C63.0491 334.52 63.5425 334.993 64.1691 335.34C64.8091 335.673 65.5358 335.84 66.3491 335.84C66.9891 335.84 67.5825 335.727 68.1291 335.5C68.6891 335.273 69.1691 334.927 69.5691 334.46L70.3691 335.38C69.9025 335.94 69.3158 336.367 68.6091 336.66C67.9158 336.953 67.1491 337.1 66.3091 337.1ZM76.7395 337.1C75.8728 337.1 75.0528 336.98 74.2795 336.74C73.5061 336.487 72.8995 336.173 72.4595 335.8L73.0995 334.68C73.5261 335 74.0728 335.28 74.7395 335.52C75.4061 335.747 76.1061 335.86 76.8395 335.86C77.8395 335.86 78.5595 335.707 78.9995 335.4C79.4395 335.08 79.6595 334.66 79.6595 334.14C79.6595 333.753 79.5328 333.453 79.2795 333.24C79.0395 333.013 78.7195 332.847 78.3195 332.74C77.9195 332.62 77.4728 332.52 76.9795 332.44C76.4861 332.36 75.9928 332.267 75.4995 332.16C75.0195 332.053 74.5795 331.9 74.1795 331.7C73.7795 331.487 73.4528 331.2 73.1995 330.84C72.9595 330.48 72.8395 330 72.8395 329.4C72.8395 328.827 72.9995 328.313 73.3195 327.86C73.6395 327.407 74.1061 327.053 74.7195 326.8C75.3461 326.533 76.1061 326.4 76.9995 326.4C77.6795 326.4 78.3595 326.493 79.0395 326.68C79.7195 326.853 80.2795 327.087 80.7195 327.38L80.0995 328.52C79.6328 328.2 79.1328 327.973 78.5995 327.84C78.0661 327.693 77.5328 327.62 76.9995 327.62C76.0528 327.62 75.3528 327.787 74.8995 328.12C74.4595 328.44 74.2395 328.853 74.2395 329.36C74.2395 329.76 74.3595 330.073 74.5995 330.3C74.8528 330.527 75.1795 330.707 75.5795 330.84C75.9928 330.96 76.4395 331.06 76.9195 331.14C77.4128 331.22 77.8995 331.32 78.3795 331.44C78.8728 331.547 79.3195 331.7 79.7195 331.9C80.1328 332.087 80.4595 332.36 80.6995 332.72C80.9528 333.067 81.0795 333.527 81.0795 334.1C81.0795 334.713 80.9061 335.247 80.5595 335.7C80.2261 336.14 79.7328 336.487 79.0795 336.74C78.4395 336.98 77.6595 337.1 76.7395 337.1ZM88.1451 337.1C87.0517 337.1 86.0917 336.873 85.2651 336.42C84.4384 335.953 83.7917 335.32 83.3251 334.52C82.8584 333.707 82.6251 332.78 82.6251 331.74C82.6251 330.7 82.8451 329.78 83.2851 328.98C83.7384 328.18 84.3517 327.553 85.1251 327.1C85.9117 326.633 86.7917 326.4 87.7651 326.4C88.7517 326.4 89.6251 326.627 90.3851 327.08C91.1584 327.52 91.7651 328.147 92.2051 328.96C92.6451 329.76 92.8651 330.687 92.8651 331.74C92.8651 331.807 92.8584 331.88 92.8451 331.96C92.8451 332.027 92.8451 332.1 92.8451 332.18H83.7051V331.12H92.0851L91.5251 331.54C91.5251 330.78 91.3584 330.107 91.0251 329.52C90.7051 328.92 90.2651 328.453 89.7051 328.12C89.1451 327.787 88.4984 327.62 87.7651 327.62C87.0451 327.62 86.3984 327.787 85.8251 328.12C85.2517 328.453 84.8051 328.92 84.4851 329.52C84.1651 330.12 84.0051 330.807 84.0051 331.58V331.8C84.0051 332.6 84.1784 333.307 84.5251 333.92C84.8851 334.52 85.3784 334.993 86.0051 335.34C86.6451 335.673 87.3717 335.84 88.1851 335.84C88.8251 335.84 89.4184 335.727 89.9651 335.5C90.5251 335.273 91.0051 334.927 91.4051 334.46L92.2051 335.38C91.7384 335.94 91.1517 336.367 90.4451 336.66C89.7517 336.953 88.9851 337.1 88.1451 337.1ZM95.7554 337V326.5H97.1154V329.36L96.9754 328.86C97.2687 328.06 97.7621 327.453 98.4554 327.04C99.1487 326.613 100.009 326.4 101.035 326.4V327.78C100.982 327.78 100.929 327.78 100.875 327.78C100.822 327.767 100.769 327.76 100.715 327.76C99.6087 327.76 98.7421 328.1 98.1154 328.78C97.4887 329.447 97.1754 330.4 97.1754 331.64V337H95.7554ZM106.776 337L102.116 326.5H103.596L107.876 336.24H107.176L111.516 326.5H112.916L108.236 337H106.776ZM114.916 337V326.5H116.336V337H114.916ZM115.636 324.18C115.342 324.18 115.096 324.08 114.896 323.88C114.696 323.68 114.596 323.44 114.596 323.16C114.596 322.88 114.696 322.647 114.896 322.46C115.096 322.26 115.342 322.16 115.636 322.16C115.929 322.16 116.176 322.253 116.376 322.44C116.576 322.627 116.676 322.86 116.676 323.14C116.676 323.433 116.576 323.68 116.376 323.88C116.189 324.08 115.942 324.18 115.636 324.18ZM125.647 326.4C126.5 326.4 127.247 326.567 127.887 326.9C128.54 327.22 129.047 327.713 129.407 328.38C129.78 329.047 129.967 329.887 129.967 330.9V337H128.547V331.04C128.547 329.933 128.267 329.1 127.707 328.54C127.16 327.967 126.387 327.68 125.387 327.68C124.64 327.68 123.987 327.833 123.427 328.14C122.88 328.433 122.453 328.867 122.147 329.44C121.853 330 121.707 330.68 121.707 331.48V337H120.287V326.5H121.647V329.38L121.427 328.84C121.76 328.08 122.293 327.487 123.027 327.06C123.76 326.62 124.633 326.4 125.647 326.4ZM138.282 340.98C137.322 340.98 136.402 340.84 135.522 340.56C134.642 340.28 133.929 339.88 133.382 339.36L134.102 338.28C134.596 338.72 135.202 339.067 135.922 339.32C136.656 339.587 137.429 339.72 138.242 339.72C139.576 339.72 140.556 339.407 141.182 338.78C141.809 338.167 142.122 337.207 142.122 335.9V333.28L142.322 331.48L142.182 329.68V326.5H143.542V335.72C143.542 337.533 143.096 338.86 142.202 339.7C141.322 340.553 140.016 340.98 138.282 340.98ZM138.022 336.6C137.022 336.6 136.122 336.387 135.322 335.96C134.522 335.52 133.889 334.913 133.422 334.14C132.969 333.367 132.742 332.48 132.742 331.48C132.742 330.48 132.969 329.6 133.422 328.84C133.889 328.067 134.522 327.467 135.322 327.04C136.122 326.613 137.022 326.4 138.022 326.4C138.956 326.4 139.796 326.593 140.542 326.98C141.289 327.367 141.882 327.94 142.322 328.7C142.762 329.46 142.982 330.387 142.982 331.48C142.982 332.573 142.762 333.5 142.322 334.26C141.882 335.02 141.289 335.6 140.542 336C139.796 336.4 138.956 336.6 138.022 336.6ZM138.162 335.34C138.936 335.34 139.622 335.18 140.222 334.86C140.822 334.527 141.296 334.073 141.642 333.5C141.989 332.913 142.162 332.24 142.162 331.48C142.162 330.72 141.989 330.053 141.642 329.48C141.296 328.907 140.822 328.46 140.222 328.14C139.622 327.807 138.936 327.64 138.162 327.64C137.402 327.64 136.716 327.807 136.102 328.14C135.502 328.46 135.029 328.907 134.682 329.48C134.349 330.053 134.182 330.72 134.182 331.48C134.182 332.24 134.349 332.913 134.682 333.5C135.029 334.073 135.502 334.527 136.102 334.86C136.716 335.18 137.402 335.34 138.162 335.34ZM153.028 337V323H158.268C159.455 323 160.475 323.193 161.328 323.58C162.181 323.953 162.835 324.5 163.288 325.22C163.755 325.927 163.988 326.787 163.988 327.8C163.988 328.787 163.755 329.64 163.288 330.36C162.835 331.067 162.181 331.613 161.328 332C160.475 332.373 159.455 332.56 158.268 332.56H153.848L154.508 331.88V337H153.028ZM162.588 337L158.988 331.92H160.588L164.208 337H162.588ZM154.508 332L153.848 331.3H158.228C159.628 331.3 160.688 330.993 161.408 330.38C162.141 329.767 162.508 328.907 162.508 327.8C162.508 326.68 162.141 325.813 161.408 325.2C160.688 324.587 159.628 324.28 158.228 324.28H153.848L154.508 323.58V332ZM165.241 337L171.641 323H173.101L179.501 337H177.941L172.061 323.86H172.661L166.781 337H165.241ZM167.761 333.26L168.201 332.06H176.341L176.781 333.26H167.761ZM187.762 337.12C186.695 337.12 185.708 336.947 184.802 336.6C183.908 336.24 183.128 335.74 182.462 335.1C181.808 334.46 181.295 333.707 180.922 332.84C180.562 331.973 180.382 331.027 180.382 330C180.382 328.973 180.562 328.027 180.922 327.16C181.295 326.293 181.815 325.54 182.482 324.9C183.148 324.26 183.928 323.767 184.822 323.42C185.728 323.06 186.715 322.88 187.782 322.88C188.848 322.88 189.822 323.047 190.702 323.38C191.595 323.713 192.355 324.22 192.982 324.9L192.062 325.84C191.475 325.253 190.828 324.833 190.122 324.58C189.415 324.327 188.655 324.2 187.842 324.2C186.975 324.2 186.175 324.347 185.442 324.64C184.722 324.92 184.088 325.327 183.542 325.86C183.008 326.38 182.588 326.993 182.282 327.7C181.988 328.393 181.842 329.16 181.842 330C181.842 330.827 181.988 331.593 182.282 332.3C182.588 333.007 183.008 333.627 183.542 334.16C184.088 334.68 184.722 335.087 185.442 335.38C186.175 335.66 186.968 335.8 187.822 335.8C188.622 335.8 189.375 335.68 190.082 335.44C190.802 335.2 191.462 334.793 192.062 334.22L192.902 335.34C192.235 335.927 191.455 336.373 190.562 336.68C189.668 336.973 188.735 337.12 187.762 337.12ZM191.482 335.16V330H192.902V335.34L191.482 335.16Z" fill="white"/>
<mask id="path-4-outside-1_3720_6524" maskUnits="userSpaceOnUse" x="56" y="136" width="122" height="87" fill="black">
<rect fill="white" x="56" y="136" width="122" height="87"/>
<path d="M147.934 187.184H165.65C166.16 184.546 168.486 182.546 171.272 182.546C174.431 182.546 177 185.114 177 188.27C177 191.427 174.431 193.995 171.272 193.995C168.486 193.995 166.16 191.995 165.65 189.357H147.108C146.2 191.597 145.131 193.769 143.911 195.859H161.348C161.949 195.859 162.435 196.346 162.435 196.946V203.205C165.075 203.714 167.076 206.038 167.076 208.823C167.076 211.98 164.507 214.547 161.348 214.547C158.19 214.547 155.62 211.98 155.62 208.823C155.62 206.038 157.621 203.714 160.261 203.205V198.032H142.568C140.581 201.072 138.271 203.912 135.644 206.469L121.634 220.103C120.335 221.367 118.668 222 117 222C115.332 222 113.665 221.368 112.366 220.103L98.3569 206.469C95.7297 203.912 93.42 201.072 91.4325 198.032H73.738V203.205C76.3779 203.714 78.3788 206.038 78.3788 208.823C78.3788 211.98 75.8094 214.547 72.6509 214.547C69.4923 214.547 66.9229 211.98 66.9229 208.823C66.9229 206.038 68.9238 203.714 71.5637 203.205V196.946C71.5637 196.345 72.0507 195.859 72.6509 195.859H90.0896C88.8703 193.769 87.8005 191.597 86.8923 189.357H68.3498C67.8398 191.995 65.5143 193.995 62.7279 193.995C59.5694 193.995 57 191.427 57 188.27C57 185.114 59.5694 182.546 62.7279 182.546C65.5143 182.546 67.8398 184.546 68.3498 187.184H86.0665C86.0633 187.175 86.0601 187.166 86.057 187.157C85.2446 184.851 84.5977 182.488 84.1265 180.083H72.6501C72.0491 180.083 71.5629 179.596 71.5629 178.996V172.737C68.923 172.227 66.9221 169.903 66.9221 167.119C66.9221 163.962 69.4916 161.394 72.6501 161.394C75.8086 161.394 78.378 163.962 78.378 167.119C78.378 169.903 76.3771 172.227 73.7372 172.737V177.91H83.7449C83.3807 175.484 83.1906 173.027 83.1906 170.557V160.679C83.1906 158.42 84.7932 156.466 87.0016 156.035C92.9227 154.877 97.4416 150.084 98.2452 144.109C98.4772 142.387 99.6269 140.903 101.246 140.235C111.7 135.921 122.302 135.922 132.755 140.235C134.375 140.903 135.524 142.387 135.756 144.109C136.559 150.084 141.078 154.877 146.999 156.035C149.208 156.466 150.81 158.422 150.81 160.685V170.557C150.81 173.027 150.62 175.484 150.256 177.91H160.262V172.737C157.622 172.227 155.621 169.903 155.621 167.119C155.621 163.962 158.191 161.394 161.349 161.394C164.508 161.394 167.077 163.962 167.077 167.119C167.077 169.903 165.076 172.227 162.436 172.737V178.996C162.436 179.597 161.949 180.083 161.349 180.083H149.874C149.402 182.497 148.751 184.869 147.934 187.184ZM161.349 163.567C159.39 163.567 157.795 165.159 157.795 167.117C157.795 169.075 159.389 170.669 161.349 170.669C163.309 170.669 164.903 169.076 164.903 167.117C164.903 165.159 163.309 163.567 161.349 163.567ZM69.0964 167.118C69.0964 169.076 70.6903 170.669 72.6493 170.669C74.6082 170.669 76.2029 169.076 76.2029 167.118C76.2029 165.159 74.609 163.567 72.6493 163.567C70.6896 163.567 69.0964 165.16 69.0964 167.118ZM62.7264 191.822C64.6853 191.822 66.28 190.229 66.28 188.27C66.28 186.312 64.6861 184.72 62.7264 184.72C60.7666 184.72 59.1727 186.313 59.1727 188.27C59.1727 190.228 60.7666 191.822 62.7264 191.822ZM72.6493 212.375C74.6082 212.375 76.2029 210.782 76.2029 208.824C76.2029 206.866 74.609 205.273 72.6493 205.273C70.6896 205.273 69.0964 206.865 69.0964 208.824C69.0964 210.782 70.6903 212.375 72.6493 212.375ZM164.903 208.824C164.903 206.866 163.309 205.273 161.349 205.273C159.389 205.273 157.795 206.865 157.795 208.824C157.795 210.782 159.389 212.375 161.349 212.375C163.309 212.375 164.903 210.782 164.903 208.824ZM148.635 170.555V160.683C148.635 159.457 147.771 158.399 146.581 158.167C139.745 156.829 134.527 151.296 133.599 144.397C133.471 143.441 132.83 142.616 131.926 142.243C126.974 140.2 121.988 139.178 117.001 139.178C112.014 139.178 107.028 140.2 102.076 142.243C101.172 142.616 100.53 143.441 100.401 144.398C99.4733 151.296 94.2561 156.83 87.4197 158.167C86.2296 158.4 85.3657 159.456 85.3657 160.678V170.556C85.3657 183.418 90.6534 195.941 99.874 204.913L113.883 218.548C115.631 220.249 118.369 220.249 120.117 218.548L134.126 204.913C143.347 195.941 148.635 183.417 148.635 170.555ZM167.718 188.27C167.718 190.228 169.312 191.822 171.272 191.822C173.232 191.822 174.826 190.229 174.826 188.27C174.826 186.312 173.232 184.72 171.272 184.72C169.312 184.72 167.718 186.313 167.718 188.27ZM125.853 200.99H108.147C103.402 200.99 99.543 197.132 99.543 192.392V173.837C99.543 173.236 100.03 172.75 100.63 172.75H104.902V164.501C104.902 157.833 110.328 152.408 116.998 152.408C123.667 152.408 129.099 157.833 129.099 164.501V172.75H133.371C133.972 172.75 134.458 173.237 134.458 173.837V192.392C134.458 197.133 130.598 200.99 125.853 200.99ZM108.147 198.817H125.853C129.398 198.817 132.283 195.934 132.283 192.392V174.924H101.718V192.392C101.718 195.935 104.602 198.817 108.147 198.817ZM107.077 164.5V172.75H126.923V164.5C126.923 159.031 122.47 154.581 116.997 154.581C111.524 154.581 107.077 159.031 107.077 164.5ZM118.976 194.298H115.024C114.423 194.298 113.936 193.811 113.936 193.211V187.745C112.505 186.75 111.64 185.122 111.64 183.352C111.64 180.398 114.045 177.995 117 177.995C119.955 177.995 122.36 180.398 122.36 183.352C122.36 185.122 121.494 186.75 120.063 187.745V193.211C120.063 193.812 119.576 194.298 118.976 194.298ZM117 180.168C115.244 180.168 113.815 181.596 113.815 183.351C113.815 184.538 114.472 185.619 115.529 186.171C115.888 186.359 116.112 186.73 116.112 187.134V192.123H117.889V187.134C117.889 186.73 118.114 186.359 118.473 186.171C119.529 185.619 120.185 184.539 120.185 183.351C120.185 181.596 118.756 180.168 117 180.168Z"/>
</mask>
<path d="M147.934 187.184H165.65C166.16 184.546 168.486 182.546 171.272 182.546C174.431 182.546 177 185.114 177 188.27C177 191.427 174.431 193.995 171.272 193.995C168.486 193.995 166.16 191.995 165.65 189.357H147.108C146.2 191.597 145.131 193.769 143.911 195.859H161.348C161.949 195.859 162.435 196.346 162.435 196.946V203.205C165.075 203.714 167.076 206.038 167.076 208.823C167.076 211.98 164.507 214.547 161.348 214.547C158.19 214.547 155.62 211.98 155.62 208.823C155.62 206.038 157.621 203.714 160.261 203.205V198.032H142.568C140.581 201.072 138.271 203.912 135.644 206.469L121.634 220.103C120.335 221.367 118.668 222 117 222C115.332 222 113.665 221.368 112.366 220.103L98.3569 206.469C95.7297 203.912 93.42 201.072 91.4325 198.032H73.738V203.205C76.3779 203.714 78.3788 206.038 78.3788 208.823C78.3788 211.98 75.8094 214.547 72.6509 214.547C69.4923 214.547 66.9229 211.98 66.9229 208.823C66.9229 206.038 68.9238 203.714 71.5637 203.205V196.946C71.5637 196.345 72.0507 195.859 72.6509 195.859H90.0896C88.8703 193.769 87.8005 191.597 86.8923 189.357H68.3498C67.8398 191.995 65.5143 193.995 62.7279 193.995C59.5694 193.995 57 191.427 57 188.27C57 185.114 59.5694 182.546 62.7279 182.546C65.5143 182.546 67.8398 184.546 68.3498 187.184H86.0665C86.0633 187.175 86.0601 187.166 86.057 187.157C85.2446 184.851 84.5977 182.488 84.1265 180.083H72.6501C72.0491 180.083 71.5629 179.596 71.5629 178.996V172.737C68.923 172.227 66.9221 169.903 66.9221 167.119C66.9221 163.962 69.4916 161.394 72.6501 161.394C75.8086 161.394 78.378 163.962 78.378 167.119C78.378 169.903 76.3771 172.227 73.7372 172.737V177.91H83.7449C83.3807 175.484 83.1906 173.027 83.1906 170.557V160.679C83.1906 158.42 84.7932 156.466 87.0016 156.035C92.9227 154.877 97.4416 150.084 98.2452 144.109C98.4772 142.387 99.6269 140.903 101.246 140.235C111.7 135.921 122.302 135.922 132.755 140.235C134.375 140.903 135.524 142.387 135.756 144.109C136.559 150.084 141.078 154.877 146.999 156.035C149.208 156.466 150.81 158.422 150.81 160.685V170.557C150.81 173.027 150.62 175.484 150.256 177.91H160.262V172.737C157.622 172.227 155.621 169.903 155.621 167.119C155.621 163.962 158.191 161.394 161.349 161.394C164.508 161.394 167.077 163.962 167.077 167.119C167.077 169.903 165.076 172.227 162.436 172.737V178.996C162.436 179.597 161.949 180.083 161.349 180.083H149.874C149.402 182.497 148.751 184.869 147.934 187.184ZM161.349 163.567C159.39 163.567 157.795 165.159 157.795 167.117C157.795 169.075 159.389 170.669 161.349 170.669C163.309 170.669 164.903 169.076 164.903 167.117C164.903 165.159 163.309 163.567 161.349 163.567ZM69.0964 167.118C69.0964 169.076 70.6903 170.669 72.6493 170.669C74.6082 170.669 76.2029 169.076 76.2029 167.118C76.2029 165.159 74.609 163.567 72.6493 163.567C70.6896 163.567 69.0964 165.16 69.0964 167.118ZM62.7264 191.822C64.6853 191.822 66.28 190.229 66.28 188.27C66.28 186.312 64.6861 184.72 62.7264 184.72C60.7666 184.72 59.1727 186.313 59.1727 188.27C59.1727 190.228 60.7666 191.822 62.7264 191.822ZM72.6493 212.375C74.6082 212.375 76.2029 210.782 76.2029 208.824C76.2029 206.866 74.609 205.273 72.6493 205.273C70.6896 205.273 69.0964 206.865 69.0964 208.824C69.0964 210.782 70.6903 212.375 72.6493 212.375ZM164.903 208.824C164.903 206.866 163.309 205.273 161.349 205.273C159.389 205.273 157.795 206.865 157.795 208.824C157.795 210.782 159.389 212.375 161.349 212.375C163.309 212.375 164.903 210.782 164.903 208.824ZM148.635 170.555V160.683C148.635 159.457 147.771 158.399 146.581 158.167C139.745 156.829 134.527 151.296 133.599 144.397C133.471 143.441 132.83 142.616 131.926 142.243C126.974 140.2 121.988 139.178 117.001 139.178C112.014 139.178 107.028 140.2 102.076 142.243C101.172 142.616 100.53 143.441 100.401 144.398C99.4733 151.296 94.2561 156.83 87.4197 158.167C86.2296 158.4 85.3657 159.456 85.3657 160.678V170.556C85.3657 183.418 90.6534 195.941 99.874 204.913L113.883 218.548C115.631 220.249 118.369 220.249 120.117 218.548L134.126 204.913C143.347 195.941 148.635 183.417 148.635 170.555ZM167.718 188.27C167.718 190.228 169.312 191.822 171.272 191.822C173.232 191.822 174.826 190.229 174.826 188.27C174.826 186.312 173.232 184.72 171.272 184.72C169.312 184.72 167.718 186.313 167.718 188.27ZM125.853 200.99H108.147C103.402 200.99 99.543 197.132 99.543 192.392V173.837C99.543 173.236 100.03 172.75 100.63 172.75H104.902V164.501C104.902 157.833 110.328 152.408 116.998 152.408C123.667 152.408 129.099 157.833 129.099 164.501V172.75H133.371C133.972 172.75 134.458 173.237 134.458 173.837V192.392C134.458 197.133 130.598 200.99 125.853 200.99ZM108.147 198.817H125.853C129.398 198.817 132.283 195.934 132.283 192.392V174.924H101.718V192.392C101.718 195.935 104.602 198.817 108.147 198.817ZM107.077 164.5V172.75H126.923V164.5C126.923 159.031 122.47 154.581 116.997 154.581C111.524 154.581 107.077 159.031 107.077 164.5ZM118.976 194.298H115.024C114.423 194.298 113.936 193.811 113.936 193.211V187.745C112.505 186.75 111.64 185.122 111.64 183.352C111.64 180.398 114.045 177.995 117 177.995C119.955 177.995 122.36 180.398 122.36 183.352C122.36 185.122 121.494 186.75 120.063 187.745V193.211C120.063 193.812 119.576 194.298 118.976 194.298ZM117 180.168C115.244 180.168 113.815 181.596 113.815 183.351C113.815 184.538 114.472 185.619 115.529 186.171C115.888 186.359 116.112 186.73 116.112 187.134V192.123H117.889V187.134C117.889 186.73 118.114 186.359 118.473 186.171C119.529 185.619 120.185 184.539 120.185 183.351C120.185 181.596 118.756 180.168 117 180.168Z" fill="#6C54C3"/>
<path d="M147.934 187.184H165.65C166.16 184.546 168.486 182.546 171.272 182.546C174.431 182.546 177 185.114 177 188.27C177 191.427 174.431 193.995 171.272 193.995C168.486 193.995 166.16 191.995 165.65 189.357H147.108C146.2 191.597 145.131 193.769 143.911 195.859H161.348C161.949 195.859 162.435 196.346 162.435 196.946V203.205C165.075 203.714 167.076 206.038 167.076 208.823C167.076 211.98 164.507 214.547 161.348 214.547C158.19 214.547 155.62 211.98 155.62 208.823C155.62 206.038 157.621 203.714 160.261 203.205V198.032H142.568C140.581 201.072 138.271 203.912 135.644 206.469L121.634 220.103C120.335 221.367 118.668 222 117 222C115.332 222 113.665 221.368 112.366 220.103L98.3569 206.469C95.7297 203.912 93.42 201.072 91.4325 198.032H73.738V203.205C76.3779 203.714 78.3788 206.038 78.3788 208.823C78.3788 211.98 75.8094 214.547 72.6509 214.547C69.4923 214.547 66.9229 211.98 66.9229 208.823C66.9229 206.038 68.9238 203.714 71.5637 203.205V196.946C71.5637 196.345 72.0507 195.859 72.6509 195.859H90.0896C88.8703 193.769 87.8005 191.597 86.8923 189.357H68.3498C67.8398 191.995 65.5143 193.995 62.7279 193.995C59.5694 193.995 57 191.427 57 188.27C57 185.114 59.5694 182.546 62.7279 182.546C65.5143 182.546 67.8398 184.546 68.3498 187.184H86.0665C86.0633 187.175 86.0601 187.166 86.057 187.157C85.2446 184.851 84.5977 182.488 84.1265 180.083H72.6501C72.0491 180.083 71.5629 179.596 71.5629 178.996V172.737C68.923 172.227 66.9221 169.903 66.9221 167.119C66.9221 163.962 69.4916 161.394 72.6501 161.394C75.8086 161.394 78.378 163.962 78.378 167.119C78.378 169.903 76.3771 172.227 73.7372 172.737V177.91H83.7449C83.3807 175.484 83.1906 173.027 83.1906 170.557V160.679C83.1906 158.42 84.7932 156.466 87.0016 156.035C92.9227 154.877 97.4416 150.084 98.2452 144.109C98.4772 142.387 99.6269 140.903 101.246 140.235C111.7 135.921 122.302 135.922 132.755 140.235C134.375 140.903 135.524 142.387 135.756 144.109C136.559 150.084 141.078 154.877 146.999 156.035C149.208 156.466 150.81 158.422 150.81 160.685V170.557C150.81 173.027 150.62 175.484 150.256 177.91H160.262V172.737C157.622 172.227 155.621 169.903 155.621 167.119C155.621 163.962 158.191 161.394 161.349 161.394C164.508 161.394 167.077 163.962 167.077 167.119C167.077 169.903 165.076 172.227 162.436 172.737V178.996C162.436 179.597 161.949 180.083 161.349 180.083H149.874C149.402 182.497 148.751 184.869 147.934 187.184ZM161.349 163.567C159.39 163.567 157.795 165.159 157.795 167.117C157.795 169.075 159.389 170.669 161.349 170.669C163.309 170.669 164.903 169.076 164.903 167.117C164.903 165.159 163.309 163.567 161.349 163.567ZM69.0964 167.118C69.0964 169.076 70.6903 170.669 72.6493 170.669C74.6082 170.669 76.2029 169.076 76.2029 167.118C76.2029 165.159 74.609 163.567 72.6493 163.567C70.6896 163.567 69.0964 165.16 69.0964 167.118ZM62.7264 191.822C64.6853 191.822 66.28 190.229 66.28 188.27C66.28 186.312 64.6861 184.72 62.7264 184.72C60.7666 184.72 59.1727 186.313 59.1727 188.27C59.1727 190.228 60.7666 191.822 62.7264 191.822ZM72.6493 212.375C74.6082 212.375 76.2029 210.782 76.2029 208.824C76.2029 206.866 74.609 205.273 72.6493 205.273C70.6896 205.273 69.0964 206.865 69.0964 208.824C69.0964 210.782 70.6903 212.375 72.6493 212.375ZM164.903 208.824C164.903 206.866 163.309 205.273 161.349 205.273C159.389 205.273 157.795 206.865 157.795 208.824C157.795 210.782 159.389 212.375 161.349 212.375C163.309 212.375 164.903 210.782 164.903 208.824ZM148.635 170.555V160.683C148.635 159.457 147.771 158.399 146.581 158.167C139.745 156.829 134.527 151.296 133.599 144.397C133.471 143.441 132.83 142.616 131.926 142.243C126.974 140.2 121.988 139.178 117.001 139.178C112.014 139.178 107.028 140.2 102.076 142.243C101.172 142.616 100.53 143.441 100.401 144.398C99.4733 151.296 94.2561 156.83 87.4197 158.167C86.2296 158.4 85.3657 159.456 85.3657 160.678V170.556C85.3657 183.418 90.6534 195.941 99.874 204.913L113.883 218.548C115.631 220.249 118.369 220.249 120.117 218.548L134.126 204.913C143.347 195.941 148.635 183.417 148.635 170.555ZM167.718 188.27C167.718 190.228 169.312 191.822 171.272 191.822C173.232 191.822 174.826 190.229 174.826 188.27C174.826 186.312 173.232 184.72 171.272 184.72C169.312 184.72 167.718 186.313 167.718 188.27ZM125.853 200.99H108.147C103.402 200.99 99.543 197.132 99.543 192.392V173.837C99.543 173.236 100.03 172.75 100.63 172.75H104.902V164.501C104.902 157.833 110.328 152.408 116.998 152.408C123.667 152.408 129.099 157.833 129.099 164.501V172.75H133.371C133.972 172.75 134.458 173.237 134.458 173.837V192.392C134.458 197.133 130.598 200.99 125.853 200.99ZM108.147 198.817H125.853C129.398 198.817 132.283 195.934 132.283 192.392V174.924H101.718V192.392C101.718 195.935 104.602 198.817 108.147 198.817ZM107.077 164.5V172.75H126.923V164.5C126.923 159.031 122.47 154.581 116.997 154.581C111.524 154.581 107.077 159.031 107.077 164.5ZM118.976 194.298H115.024C114.423 194.298 113.936 193.811 113.936 193.211V187.745C112.505 186.75 111.64 185.122 111.64 183.352C111.64 180.398 114.045 177.995 117 177.995C119.955 177.995 122.36 180.398 122.36 183.352C122.36 185.122 121.494 186.75 120.063 187.745V193.211C120.063 193.812 119.576 194.298 118.976 194.298ZM117 180.168C115.244 180.168 113.815 181.596 113.815 183.351C113.815 184.538 114.472 185.619 115.529 186.171C115.888 186.359 116.112 186.73 116.112 187.134V192.123H117.889V187.134C117.889 186.73 118.114 186.359 118.473 186.171C119.529 185.619 120.185 184.539 120.185 183.351C120.185 181.596 118.756 180.168 117 180.168Z" stroke="#6C54C3" mask="url(#path-4-outside-1_3720_6524)"/>
</svg>
