<svg width="124" height="124" viewBox="0 0 124 124" fill="none" xmlns="http://www.w3.org/2000/svg">
<path d="M4.27586 0H0V4.27586H4.27586V0Z" fill="white"/>
<path d="M8.55172 0H4.27586V4.27586H8.55172V0Z" fill="white"/>
<path d="M12.8276 0H8.55172V4.27586H12.8276V0Z" fill="white"/>
<path d="M17.1034 0H12.8276V4.27586H17.1034V0Z" fill="white"/>
<path d="M21.3793 0H17.1034V4.27586H21.3793V0Z" fill="white"/>
<path d="M25.6552 0H21.3793V4.27586H25.6552V0Z" fill="white"/>
<path d="M29.931 0H25.6552V4.27586H29.931V0Z" fill="white"/>
<path d="M38.4828 0H34.2069V4.27586H38.4828V0Z" fill="white"/>
<path d="M47.0345 0H42.7586V4.27586H47.0345V0Z" fill="white"/>
<path d="M68.4138 0H64.1379V4.27586H68.4138V0Z" fill="white"/>
<path d="M72.6897 0H68.4138V4.27586H72.6897V0Z" fill="white"/>
<path d="M81.2414 0H76.9655V4.27586H81.2414V0Z" fill="white"/>
<path d="M89.7931 0H85.5173V4.27586H89.7931V0Z" fill="white"/>
<path d="M98.3448 0H94.069V4.27586H98.3448V0Z" fill="white"/>
<path d="M102.621 0H98.3448V4.27586H102.621V0Z" fill="white"/>
<path d="M106.897 0H102.621V4.27586H106.897V0Z" fill="white"/>
<path d="M111.172 0H106.897V4.27586H111.172V0Z" fill="white"/>
<path d="M115.448 0H111.172V4.27586H115.448V0Z" fill="white"/>
<path d="M119.724 0H115.448V4.27586H119.724V0Z" fill="white"/>
<path d="M124 0H119.724V4.27586H124V0Z" fill="white"/>
<path d="M4.27586 4.27586H0V8.55172H4.27586V4.27586Z" fill="white"/>
<path d="M29.931 4.27586H25.6552V8.55172H29.931V4.27586Z" fill="white"/>
<path d="M42.7586 4.27586H38.4828V8.55172H42.7586V4.27586Z" fill="white"/>
<path d="M47.0345 4.27586H42.7586V8.55172H47.0345V4.27586Z" fill="white"/>
<path d="M51.3103 4.27586H47.0345V8.55172H51.3103V4.27586Z" fill="white"/>
<path d="M55.5862 4.27586H51.3103V8.55172H55.5862V4.27586Z" fill="white"/>
<path d="M64.1379 4.27586H59.8621V8.55172H64.1379V4.27586Z" fill="white"/>
<path d="M68.4138 4.27586H64.1379V8.55172H68.4138V4.27586Z" fill="white"/>
<path d="M98.3448 4.27586H94.069V8.55172H98.3448V4.27586Z" fill="white"/>
<path d="M124 4.27586H119.724V8.55172H124V4.27586Z" fill="white"/>
<path d="M4.27586 8.55172H0V12.8276H4.27586V8.55172Z" fill="white"/>
<path d="M12.8276 8.55172H8.55172V12.8276H12.8276V8.55172Z" fill="white"/>
<path d="M17.1034 8.55172H12.8276V12.8276H17.1034V8.55172Z" fill="white"/>
<path d="M21.3793 8.55172H17.1034V12.8276H21.3793V8.55172Z" fill="white"/>
<path d="M29.931 8.55172H25.6552V12.8276H29.931V8.55172Z" fill="white"/>
<path d="M47.0345 8.55172H42.7586V12.8276H47.0345V8.55172Z" fill="white"/>
<path d="M51.3103 8.55172H47.0345V12.8276H51.3103V8.55172Z" fill="white"/>
<path d="M55.5862 8.55172H51.3103V12.8276H55.5862V8.55172Z" fill="white"/>
<path d="M59.8621 8.55172H55.5862V12.8276H59.8621V8.55172Z" fill="white"/>
<path d="M68.4138 8.55172H64.1379V12.8276H68.4138V8.55172Z" fill="white"/>
<path d="M72.6897 8.55172H68.4138V12.8276H72.6897V8.55172Z" fill="white"/>
<path d="M85.5173 8.55172H81.2414V12.8276H85.5173V8.55172Z" fill="white"/>
<path d="M89.7931 8.55172H85.5173V12.8276H89.7931V8.55172Z" fill="white"/>
<path d="M98.3448 8.55172H94.069V12.8276H98.3448V8.55172Z" fill="white"/>
<path d="M106.897 8.55172H102.621V12.8276H106.897V8.55172Z" fill="white"/>
<path d="M111.172 8.55172H106.897V12.8276H111.172V8.55172Z" fill="white"/>
<path d="M115.448 8.55172H111.172V12.8276H115.448V8.55172Z" fill="white"/>
<path d="M124 8.55172H119.724V12.8276H124V8.55172Z" fill="white"/>
<path d="M4.27586 12.8276H0V17.1034H4.27586V12.8276Z" fill="white"/>
<path d="M12.8276 12.8276H8.55172V17.1034H12.8276V12.8276Z" fill="white"/>
<path d="M17.1034 12.8276H12.8276V17.1034H17.1034V12.8276Z" fill="white"/>
<path d="M21.3793 12.8276H17.1034V17.1034H21.3793V12.8276Z" fill="white"/>
<path d="M29.931 12.8276H25.6552V17.1034H29.931V12.8276Z" fill="white"/>
<path d="M38.4828 12.8276H34.2069V17.1034H38.4828V12.8276Z" fill="white"/>
<path d="M42.7586 12.8276H38.4828V17.1034H42.7586V12.8276Z" fill="white"/>
<path d="M47.0345 12.8276H42.7586V17.1034H47.0345V12.8276Z" fill="white"/>
<path d="M51.3103 12.8276H47.0345V17.1034H51.3103V12.8276Z" fill="white"/>
<path d="M59.8621 12.8276H55.5862V17.1034H59.8621V12.8276Z" fill="white"/>
<path d="M72.6897 12.8276H68.4138V17.1034H72.6897V12.8276Z" fill="white"/>
<path d="M85.5173 12.8276H81.2414V17.1034H85.5173V12.8276Z" fill="white"/>
<path d="M98.3448 12.8276H94.069V17.1034H98.3448V12.8276Z" fill="white"/>
<path d="M106.897 12.8276H102.621V17.1034H106.897V12.8276Z" fill="white"/>
<path d="M111.172 12.8276H106.897V17.1034H111.172V12.8276Z" fill="white"/>
<path d="M115.448 12.8276H111.172V17.1034H115.448V12.8276Z" fill="white"/>
<path d="M124 12.8276H119.724V17.1034H124V12.8276Z" fill="white"/>
<path d="M4.27586 17.1034H0V21.3793H4.27586V17.1034Z" fill="white"/>
<path d="M12.8276 17.1034H8.55172V21.3793H12.8276V17.1034Z" fill="white"/>
<path d="M17.1034 17.1034H12.8276V21.3793H17.1034V17.1034Z" fill="white"/>
<path d="M21.3793 17.1034H17.1034V21.3793H21.3793V17.1034Z" fill="white"/>
<path d="M29.931 17.1034H25.6552V21.3793H29.931V17.1034Z" fill="white"/>
<path d="M59.8621 17.1034H55.5862V21.3793H59.8621V17.1034Z" fill="white"/>
<path d="M64.1379 17.1034H59.8621V21.3793H64.1379V17.1034Z" fill="white"/>
<path d="M68.4138 17.1034H64.1379V21.3793H68.4138V17.1034Z" fill="white"/>
<path d="M76.9655 17.1034H72.6897V21.3793H76.9655V17.1034Z" fill="white"/>
<path d="M98.3448 17.1034H94.069V21.3793H98.3448V17.1034Z" fill="white"/>
<path d="M106.897 17.1034H102.621V21.3793H106.897V17.1034Z" fill="white"/>
<path d="M111.172 17.1034H106.897V21.3793H111.172V17.1034Z" fill="white"/>
<path d="M115.448 17.1034H111.172V21.3793H115.448V17.1034Z" fill="white"/>
<path d="M124 17.1034H119.724V21.3793H124V17.1034Z" fill="white"/>
<path d="M4.27586 21.3793H0V25.6552H4.27586V21.3793Z" fill="white"/>
<path d="M29.931 21.3793H25.6552V25.6552H29.931V21.3793Z" fill="white"/>
<path d="M38.4828 21.3793H34.2069V25.6552H38.4828V21.3793Z" fill="white"/>
<path d="M42.7586 21.3793H38.4828V25.6552H42.7586V21.3793Z" fill="white"/>
<path d="M47.0345 21.3793H42.7586V25.6552H47.0345V21.3793Z" fill="white"/>
<path d="M51.3103 21.3793H47.0345V25.6552H51.3103V21.3793Z" fill="white"/>
<path d="M55.5862 21.3793H51.3103V25.6552H55.5862V21.3793Z" fill="white"/>
<path d="M59.8621 21.3793H55.5862V25.6552H59.8621V21.3793Z" fill="white"/>
<path d="M68.4138 21.3793H64.1379V25.6552H68.4138V21.3793Z" fill="white"/>
<path d="M72.6897 21.3793H68.4138V25.6552H72.6897V21.3793Z" fill="white"/>
<path d="M98.3448 21.3793H94.069V25.6552H98.3448V21.3793Z" fill="white"/>
<path d="M124 21.3793H119.724V25.6552H124V21.3793Z" fill="white"/>
<path d="M4.27586 25.6552H0V29.931H4.27586V25.6552Z" fill="white"/>
<path d="M8.55172 25.6552H4.27586V29.931H8.55172V25.6552Z" fill="white"/>
<path d="M12.8276 25.6552H8.55172V29.931H12.8276V25.6552Z" fill="white"/>
<path d="M17.1034 25.6552H12.8276V29.931H17.1034V25.6552Z" fill="white"/>
<path d="M21.3793 25.6552H17.1034V29.931H21.3793V25.6552Z" fill="white"/>
<path d="M25.6552 25.6552H21.3793V29.931H25.6552V25.6552Z" fill="white"/>
<path d="M29.931 25.6552H25.6552V29.931H29.931V25.6552Z" fill="white"/>
<path d="M38.4828 25.6552H34.2069V29.931H38.4828V25.6552Z" fill="white"/>
<path d="M47.0345 25.6552H42.7586V29.931H47.0345V25.6552Z" fill="white"/>
<path d="M55.5862 25.6552H51.3103V29.931H55.5862V25.6552Z" fill="white"/>
<path d="M64.1379 25.6552H59.8621V29.931H64.1379V25.6552Z" fill="white"/>
<path d="M72.6897 25.6552H68.4138V29.931H72.6897V25.6552Z" fill="white"/>
<path d="M81.2414 25.6552H76.9655V29.931H81.2414V25.6552Z" fill="white"/>
<path d="M89.7931 25.6552H85.5173V29.931H89.7931V25.6552Z" fill="white"/>
<path d="M98.3448 25.6552H94.069V29.931H98.3448V25.6552Z" fill="white"/>
<path d="M102.621 25.6552H98.3448V29.931H102.621V25.6552Z" fill="white"/>
<path d="M106.897 25.6552H102.621V29.931H106.897V25.6552Z" fill="white"/>
<path d="M111.172 25.6552H106.897V29.931H111.172V25.6552Z" fill="white"/>
<path d="M115.448 25.6552H111.172V29.931H115.448V25.6552Z" fill="white"/>
<path d="M119.724 25.6552H115.448V29.931H119.724V25.6552Z" fill="white"/>
<path d="M124 25.6552H119.724V29.931H124V25.6552Z" fill="white"/>
<path d="M42.7586 29.931H38.4828V34.2069H42.7586V29.931Z" fill="white"/>
<path d="M64.1379 29.931H59.8621V34.2069H64.1379V29.931Z" fill="white"/>
<path d="M76.9655 29.931H72.6897V34.2069H76.9655V29.931Z" fill="white"/>
<path d="M81.2414 29.931H76.9655V34.2069H81.2414V29.931Z" fill="white"/>
<path d="M85.5173 29.931H81.2414V34.2069H85.5173V29.931Z" fill="white"/>
<path d="M89.7931 29.931H85.5173V34.2069H89.7931V29.931Z" fill="white"/>
<path d="M25.6552 34.2069H21.3793V38.4828H25.6552V34.2069Z" fill="white"/>
<path d="M29.931 34.2069H25.6552V38.4828H29.931V34.2069Z" fill="white"/>
<path d="M38.4828 34.2069H34.2069V38.4828H38.4828V34.2069Z" fill="white"/>
<path d="M42.7586 34.2069H38.4828V38.4828H42.7586V34.2069Z" fill="white"/>
<path d="M51.3103 34.2069H47.0345V38.4828H51.3103V34.2069Z" fill="white"/>
<path d="M55.5862 34.2069H51.3103V38.4828H55.5862V34.2069Z" fill="white"/>
<path d="M64.1379 34.2069H59.8621V38.4828H64.1379V34.2069Z" fill="white"/>
<path d="M68.4138 34.2069H64.1379V38.4828H68.4138V34.2069Z" fill="white"/>
<path d="M72.6897 34.2069H68.4138V38.4828H72.6897V34.2069Z" fill="white"/>
<path d="M76.9655 34.2069H72.6897V38.4828H76.9655V34.2069Z" fill="white"/>
<path d="M94.069 34.2069H89.7931V38.4828H94.069V34.2069Z" fill="white"/>
<path d="M102.621 34.2069H98.3448V38.4828H102.621V34.2069Z" fill="white"/>
<path d="M111.172 34.2069H106.897V38.4828H111.172V34.2069Z" fill="white"/>
<path d="M124 34.2069H119.724V38.4828H124V34.2069Z" fill="white"/>
<path d="M4.27586 38.4828H0V42.7586H4.27586V38.4828Z" fill="white"/>
<path d="M17.1034 38.4828H12.8276V42.7586H17.1034V38.4828Z" fill="white"/>
<path d="M34.2069 38.4828H29.931V42.7586H34.2069V38.4828Z" fill="white"/>
<path d="M38.4828 38.4828H34.2069V42.7586H38.4828V38.4828Z" fill="white"/>
<path d="M42.7586 38.4828H38.4828V42.7586H42.7586V38.4828Z" fill="white"/>
<path d="M68.4138 38.4828H64.1379V42.7586H68.4138V38.4828Z" fill="white"/>
<path d="M76.9655 38.4828H72.6897V42.7586H76.9655V38.4828Z" fill="white"/>
<path d="M85.5173 38.4828H81.2414V42.7586H85.5173V38.4828Z" fill="white"/>
<path d="M94.069 38.4828H89.7931V42.7586H94.069V38.4828Z" fill="white"/>
<path d="M4.27586 42.7586H0V47.0345H4.27586V42.7586Z" fill="white"/>
<path d="M17.1034 42.7586H12.8276V47.0345H17.1034V42.7586Z" fill="white"/>
<path d="M21.3793 42.7586H17.1034V47.0345H21.3793V42.7586Z" fill="white"/>
<path d="M29.931 42.7586H25.6552V47.0345H29.931V42.7586Z" fill="white"/>
<path d="M34.2069 42.7586H29.931V47.0345H34.2069V42.7586Z" fill="white"/>
<path d="M38.4828 42.7586H34.2069V47.0345H38.4828V42.7586Z" fill="white"/>
<path d="M47.0345 42.7586H42.7586V47.0345H47.0345V42.7586Z" fill="white"/>
<path d="M55.5862 42.7586H51.3103V47.0345H55.5862V42.7586Z" fill="white"/>
<path d="M68.4138 42.7586H64.1379V47.0345H68.4138V42.7586Z" fill="white"/>
<path d="M81.2414 42.7586H76.9655V47.0345H81.2414V42.7586Z" fill="white"/>
<path d="M89.7931 42.7586H85.5173V47.0345H89.7931V42.7586Z" fill="white"/>
<path d="M98.3448 42.7586H94.069V47.0345H98.3448V42.7586Z" fill="white"/>
<path d="M106.897 42.7586H102.621V47.0345H106.897V42.7586Z" fill="white"/>
<path d="M115.448 42.7586H111.172V47.0345H115.448V42.7586Z" fill="white"/>
<path d="M124 42.7586H119.724V47.0345H124V42.7586Z" fill="white"/>
<path d="M25.6552 47.0345H21.3793V51.3103H25.6552V47.0345Z" fill="white"/>
<path d="M47.0345 47.0345H42.7586V51.3103H47.0345V47.0345Z" fill="white"/>
<path d="M59.8621 47.0345H55.5862V51.3103H59.8621V47.0345Z" fill="white"/>
<path d="M64.1379 47.0345H59.8621V51.3103H64.1379V47.0345Z" fill="white"/>
<path d="M72.6897 47.0345H68.4138V51.3103H72.6897V47.0345Z" fill="white"/>
<path d="M81.2414 47.0345H76.9655V51.3103H81.2414V47.0345Z" fill="white"/>
<path d="M85.5173 47.0345H81.2414V51.3103H85.5173V47.0345Z" fill="white"/>
<path d="M89.7931 47.0345H85.5173V51.3103H89.7931V47.0345Z" fill="white"/>
<path d="M94.069 47.0345H89.7931V51.3103H94.069V47.0345Z" fill="white"/>
<path d="M102.621 47.0345H98.3448V51.3103H102.621V47.0345Z" fill="white"/>
<path d="M106.897 47.0345H102.621V51.3103H106.897V47.0345Z" fill="white"/>
<path d="M12.8276 51.3103H8.55172V55.5862H12.8276V51.3103Z" fill="white"/>
<path d="M29.931 51.3103H25.6552V55.5862H29.931V51.3103Z" fill="white"/>
<path d="M38.4828 51.3103H34.2069V55.5862H38.4828V51.3103Z" fill="white"/>
<path d="M42.7586 51.3103H38.4828V55.5862H42.7586V51.3103Z" fill="white"/>
<path d="M47.0345 51.3103H42.7586V55.5862H47.0345V51.3103Z" fill="white"/>
<path d="M51.3103 51.3103H47.0345V55.5862H51.3103V51.3103Z" fill="white"/>
<path d="M55.5862 51.3103H51.3103V55.5862H55.5862V51.3103Z" fill="white"/>
<path d="M64.1379 51.3103H59.8621V55.5862H64.1379V51.3103Z" fill="white"/>
<path d="M68.4138 51.3103H64.1379V55.5862H68.4138V51.3103Z" fill="white"/>
<path d="M81.2414 51.3103H76.9655V55.5862H81.2414V51.3103Z" fill="white"/>
<path d="M85.5173 51.3103H81.2414V55.5862H85.5173V51.3103Z" fill="white"/>
<path d="M98.3448 51.3103H94.069V55.5862H98.3448V51.3103Z" fill="white"/>
<path d="M106.897 51.3103H102.621V55.5862H106.897V51.3103Z" fill="white"/>
<path d="M115.448 51.3103H111.172V55.5862H115.448V51.3103Z" fill="white"/>
<path d="M124 51.3103H119.724V55.5862H124V51.3103Z" fill="white"/>
<path d="M4.27586 55.5862H0V59.8621H4.27586V55.5862Z" fill="white"/>
<path d="M8.55172 55.5862H4.27586V59.8621H8.55172V55.5862Z" fill="white"/>
<path d="M12.8276 55.5862H8.55172V59.8621H12.8276V55.5862Z" fill="white"/>
<path d="M17.1034 55.5862H12.8276V59.8621H17.1034V55.5862Z" fill="white"/>
<path d="M21.3793 55.5862H17.1034V59.8621H21.3793V55.5862Z" fill="white"/>
<path d="M25.6552 55.5862H21.3793V59.8621H25.6552V55.5862Z" fill="white"/>
<path d="M68.4138 55.5862H64.1379V59.8621H68.4138V55.5862Z" fill="white"/>
<path d="M72.6897 55.5862H68.4138V59.8621H72.6897V55.5862Z" fill="white"/>
<path d="M81.2414 55.5862H76.9655V59.8621H81.2414V55.5862Z" fill="white"/>
<path d="M85.5173 55.5862H81.2414V59.8621H85.5173V55.5862Z" fill="white"/>
<path d="M94.069 55.5862H89.7931V59.8621H94.069V55.5862Z" fill="white"/>
<path d="M98.3448 55.5862H94.069V59.8621H98.3448V55.5862Z" fill="white"/>
<path d="M102.621 55.5862H98.3448V59.8621H102.621V55.5862Z" fill="white"/>
<path d="M119.724 55.5862H115.448V59.8621H119.724V55.5862Z" fill="white"/>
<path d="M124 55.5862H119.724V59.8621H124V55.5862Z" fill="white"/>
<path d="M8.55172 59.8621H4.27586V64.1379H8.55172V59.8621Z" fill="white"/>
<path d="M17.1034 59.8621H12.8276V64.1379H17.1034V59.8621Z" fill="white"/>
<path d="M21.3793 59.8621H17.1034V64.1379H21.3793V59.8621Z" fill="white"/>
<path d="M25.6552 59.8621H21.3793V64.1379H25.6552V59.8621Z" fill="white"/>
<path d="M29.931 59.8621H25.6552V64.1379H29.931V59.8621Z" fill="white"/>
<path d="M34.2069 59.8621H29.931V64.1379H34.2069V59.8621Z" fill="white"/>
<path d="M42.7586 59.8621H38.4828V64.1379H42.7586V59.8621Z" fill="white"/>
<path d="M51.3103 59.8621H47.0345V64.1379H51.3103V59.8621Z" fill="white"/>
<path d="M68.4138 59.8621H64.1379V64.1379H68.4138V59.8621Z" fill="white"/>
<path d="M72.6897 59.8621H68.4138V64.1379H72.6897V59.8621Z" fill="white"/>
<path d="M89.7931 59.8621H85.5173V64.1379H89.7931V59.8621Z" fill="white"/>
<path d="M98.3448 59.8621H94.069V64.1379H98.3448V59.8621Z" fill="white"/>
<path d="M106.897 59.8621H102.621V64.1379H106.897V59.8621Z" fill="white"/>
<path d="M111.172 59.8621H106.897V64.1379H111.172V59.8621Z" fill="white"/>
<path d="M124 59.8621H119.724V64.1379H124V59.8621Z" fill="white"/>
<path d="M8.55172 64.1379H4.27586V68.4138H8.55172V64.1379Z" fill="white"/>
<path d="M17.1034 64.1379H12.8276V68.4138H17.1034V64.1379Z" fill="white"/>
<path d="M38.4828 64.1379H34.2069V68.4138H38.4828V64.1379Z" fill="white"/>
<path d="M42.7586 64.1379H38.4828V68.4138H42.7586V64.1379Z" fill="white"/>
<path d="M51.3103 64.1379H47.0345V68.4138H51.3103V64.1379Z" fill="white"/>
<path d="M59.8621 64.1379H55.5862V68.4138H59.8621V64.1379Z" fill="white"/>
<path d="M64.1379 64.1379H59.8621V68.4138H64.1379V64.1379Z" fill="white"/>
<path d="M72.6897 64.1379H68.4138V68.4138H72.6897V64.1379Z" fill="white"/>
<path d="M76.9655 64.1379H72.6897V68.4138H76.9655V64.1379Z" fill="white"/>
<path d="M85.5173 64.1379H81.2414V68.4138H85.5173V64.1379Z" fill="white"/>
<path d="M94.069 64.1379H89.7931V68.4138H94.069V64.1379Z" fill="white"/>
<path d="M98.3448 64.1379H94.069V68.4138H98.3448V64.1379Z" fill="white"/>
<path d="M106.897 64.1379H102.621V68.4138H106.897V64.1379Z" fill="white"/>
<path d="M111.172 64.1379H106.897V68.4138H111.172V64.1379Z" fill="white"/>
<path d="M119.724 64.1379H115.448V68.4138H119.724V64.1379Z" fill="white"/>
<path d="M4.27586 68.4138H0V72.6897H4.27586V68.4138Z" fill="white"/>
<path d="M12.8276 68.4138H8.55172V72.6897H12.8276V68.4138Z" fill="white"/>
<path d="M21.3793 68.4138H17.1034V72.6897H21.3793V68.4138Z" fill="white"/>
<path d="M29.931 68.4138H25.6552V72.6897H29.931V68.4138Z" fill="white"/>
<path d="M47.0345 68.4138H42.7586V72.6897H47.0345V68.4138Z" fill="white"/>
<path d="M55.5862 68.4138H51.3103V72.6897H55.5862V68.4138Z" fill="white"/>
<path d="M64.1379 68.4138H59.8621V72.6897H64.1379V68.4138Z" fill="white"/>
<path d="M68.4138 68.4138H64.1379V72.6897H68.4138V68.4138Z" fill="white"/>
<path d="M72.6897 68.4138H68.4138V72.6897H72.6897V68.4138Z" fill="white"/>
<path d="M85.5173 68.4138H81.2414V72.6897H85.5173V68.4138Z" fill="white"/>
<path d="M89.7931 68.4138H85.5173V72.6897H89.7931V68.4138Z" fill="white"/>
<path d="M94.069 68.4138H89.7931V72.6897H94.069V68.4138Z" fill="white"/>
<path d="M102.621 68.4138H98.3448V72.6897H102.621V68.4138Z" fill="white"/>
<path d="M111.172 68.4138H106.897V72.6897H111.172V68.4138Z" fill="white"/>
<path d="M8.55172 72.6897H4.27586V76.9655H8.55172V72.6897Z" fill="white"/>
<path d="M12.8276 72.6897H8.55172V76.9655H12.8276V72.6897Z" fill="white"/>
<path d="M34.2069 72.6897H29.931V76.9655H34.2069V72.6897Z" fill="white"/>
<path d="M47.0345 72.6897H42.7586V76.9655H47.0345V72.6897Z" fill="white"/>
<path d="M55.5862 72.6897H51.3103V76.9655H55.5862V72.6897Z" fill="white"/>
<path d="M59.8621 72.6897H55.5862V76.9655H59.8621V72.6897Z" fill="white"/>
<path d="M68.4138 72.6897H64.1379V76.9655H68.4138V72.6897Z" fill="white"/>
<path d="M72.6897 72.6897H68.4138V76.9655H72.6897V72.6897Z" fill="white"/>
<path d="M81.2414 72.6897H76.9655V76.9655H81.2414V72.6897Z" fill="white"/>
<path d="M85.5173 72.6897H81.2414V76.9655H85.5173V72.6897Z" fill="white"/>
<path d="M98.3448 72.6897H94.069V76.9655H98.3448V72.6897Z" fill="white"/>
<path d="M4.27586 76.9655H0V81.2414H4.27586V76.9655Z" fill="white"/>
<path d="M8.55172 76.9655H4.27586V81.2414H8.55172V76.9655Z" fill="white"/>
<path d="M12.8276 76.9655H8.55172V81.2414H12.8276V76.9655Z" fill="white"/>
<path d="M17.1034 76.9655H12.8276V81.2414H17.1034V76.9655Z" fill="white"/>
<path d="M21.3793 76.9655H17.1034V81.2414H21.3793V76.9655Z" fill="white"/>
<path d="M29.931 76.9655H25.6552V81.2414H29.931V76.9655Z" fill="white"/>
<path d="M34.2069 76.9655H29.931V81.2414H34.2069V76.9655Z" fill="white"/>
<path d="M38.4828 76.9655H34.2069V81.2414H38.4828V76.9655Z" fill="white"/>
<path d="M59.8621 76.9655H55.5862V81.2414H59.8621V76.9655Z" fill="white"/>
<path d="M68.4138 76.9655H64.1379V81.2414H68.4138V76.9655Z" fill="white"/>
<path d="M76.9655 76.9655H72.6897V81.2414H76.9655V76.9655Z" fill="white"/>
<path d="M81.2414 76.9655H76.9655V81.2414H81.2414V76.9655Z" fill="white"/>
<path d="M85.5173 76.9655H81.2414V81.2414H85.5173V76.9655Z" fill="white"/>
<path d="M89.7931 76.9655H85.5173V81.2414H89.7931V76.9655Z" fill="white"/>
<path d="M102.621 76.9655H98.3448V81.2414H102.621V76.9655Z" fill="white"/>
<path d="M106.897 76.9655H102.621V81.2414H106.897V76.9655Z" fill="white"/>
<path d="M4.27586 81.2414H0V85.5173H4.27586V81.2414Z" fill="white"/>
<path d="M25.6552 81.2414H21.3793V85.5173H25.6552V81.2414Z" fill="white"/>
<path d="M38.4828 81.2414H34.2069V85.5173H38.4828V81.2414Z" fill="white"/>
<path d="M47.0345 81.2414H42.7586V85.5173H47.0345V81.2414Z" fill="white"/>
<path d="M51.3103 81.2414H47.0345V85.5173H51.3103V81.2414Z" fill="white"/>
<path d="M59.8621 81.2414H55.5862V85.5173H59.8621V81.2414Z" fill="white"/>
<path d="M85.5173 81.2414H81.2414V85.5173H85.5173V81.2414Z" fill="white"/>
<path d="M111.172 81.2414H106.897V85.5173H111.172V81.2414Z" fill="white"/>
<path d="M115.448 81.2414H111.172V85.5173H115.448V81.2414Z" fill="white"/>
<path d="M119.724 81.2414H115.448V85.5173H119.724V81.2414Z" fill="white"/>
<path d="M12.8276 85.5173H8.55172V89.7931H12.8276V85.5173Z" fill="white"/>
<path d="M29.931 85.5173H25.6552V89.7931H29.931V85.5173Z" fill="white"/>
<path d="M42.7586 85.5173H38.4828V89.7931H42.7586V85.5173Z" fill="white"/>
<path d="M47.0345 85.5173H42.7586V89.7931H47.0345V85.5173Z" fill="white"/>
<path d="M59.8621 85.5173H55.5862V89.7931H59.8621V85.5173Z" fill="white"/>
<path d="M68.4138 85.5173H64.1379V89.7931H68.4138V85.5173Z" fill="white"/>
<path d="M72.6897 85.5173H68.4138V89.7931H72.6897V85.5173Z" fill="white"/>
<path d="M76.9655 85.5173H72.6897V89.7931H76.9655V85.5173Z" fill="white"/>
<path d="M89.7931 85.5173H85.5173V89.7931H89.7931V85.5173Z" fill="white"/>
<path d="M94.069 85.5173H89.7931V89.7931H94.069V85.5173Z" fill="white"/>
<path d="M98.3448 85.5173H94.069V89.7931H98.3448V85.5173Z" fill="white"/>
<path d="M102.621 85.5173H98.3448V89.7931H102.621V85.5173Z" fill="white"/>
<path d="M106.897 85.5173H102.621V89.7931H106.897V85.5173Z" fill="white"/>
<path d="M119.724 85.5173H115.448V89.7931H119.724V85.5173Z" fill="white"/>
<path d="M124 85.5173H119.724V89.7931H124V85.5173Z" fill="white"/>
<path d="M38.4828 89.7931H34.2069V94.069H38.4828V89.7931Z" fill="white"/>
<path d="M55.5862 89.7931H51.3103V94.069H55.5862V89.7931Z" fill="white"/>
<path d="M64.1379 89.7931H59.8621V94.069H64.1379V89.7931Z" fill="white"/>
<path d="M68.4138 89.7931H64.1379V94.069H68.4138V89.7931Z" fill="white"/>
<path d="M72.6897 89.7931H68.4138V94.069H72.6897V89.7931Z" fill="white"/>
<path d="M76.9655 89.7931H72.6897V94.069H76.9655V89.7931Z" fill="white"/>
<path d="M81.2414 89.7931H76.9655V94.069H81.2414V89.7931Z" fill="white"/>
<path d="M89.7931 89.7931H85.5173V94.069H89.7931V89.7931Z" fill="white"/>
<path d="M106.897 89.7931H102.621V94.069H106.897V89.7931Z" fill="white"/>
<path d="M115.448 89.7931H111.172V94.069H115.448V89.7931Z" fill="white"/>
<path d="M119.724 89.7931H115.448V94.069H119.724V89.7931Z" fill="white"/>
<path d="M4.27586 94.069H0V98.3448H4.27586V94.069Z" fill="white"/>
<path d="M8.55172 94.069H4.27586V98.3448H8.55172V94.069Z" fill="white"/>
<path d="M12.8276 94.069H8.55172V98.3448H12.8276V94.069Z" fill="white"/>
<path d="M17.1034 94.069H12.8276V98.3448H17.1034V94.069Z" fill="white"/>
<path d="M21.3793 94.069H17.1034V98.3448H21.3793V94.069Z" fill="white"/>
<path d="M25.6552 94.069H21.3793V98.3448H25.6552V94.069Z" fill="white"/>
<path d="M29.931 94.069H25.6552V98.3448H29.931V94.069Z" fill="white"/>
<path d="M42.7586 94.069H38.4828V98.3448H42.7586V94.069Z" fill="white"/>
<path d="M51.3103 94.069H47.0345V98.3448H51.3103V94.069Z" fill="white"/>
<path d="M55.5862 94.069H51.3103V98.3448H55.5862V94.069Z" fill="white"/>
<path d="M64.1379 94.069H59.8621V98.3448H64.1379V94.069Z" fill="white"/>
<path d="M76.9655 94.069H72.6897V98.3448H76.9655V94.069Z" fill="white"/>
<path d="M89.7931 94.069H85.5173V98.3448H89.7931V94.069Z" fill="white"/>
<path d="M98.3448 94.069H94.069V98.3448H98.3448V94.069Z" fill="white"/>
<path d="M106.897 94.069H102.621V98.3448H106.897V94.069Z" fill="white"/>
<path d="M111.172 94.069H106.897V98.3448H111.172V94.069Z" fill="white"/>
<path d="M124 94.069H119.724V98.3448H124V94.069Z" fill="white"/>
<path d="M4.27586 98.3448H0V102.621H4.27586V98.3448Z" fill="white"/>
<path d="M29.931 98.3448H25.6552V102.621H29.931V98.3448Z" fill="white"/>
<path d="M38.4828 98.3448H34.2069V102.621H38.4828V98.3448Z" fill="white"/>
<path d="M47.0345 98.3448H42.7586V102.621H47.0345V98.3448Z" fill="white"/>
<path d="M51.3103 98.3448H47.0345V102.621H51.3103V98.3448Z" fill="white"/>
<path d="M59.8621 98.3448H55.5862V102.621H59.8621V98.3448Z" fill="white"/>
<path d="M76.9655 98.3448H72.6897V102.621H76.9655V98.3448Z" fill="white"/>
<path d="M81.2414 98.3448H76.9655V102.621H81.2414V98.3448Z" fill="white"/>
<path d="M85.5173 98.3448H81.2414V102.621H85.5173V98.3448Z" fill="white"/>
<path d="M89.7931 98.3448H85.5173V102.621H89.7931V98.3448Z" fill="white"/>
<path d="M106.897 98.3448H102.621V102.621H106.897V98.3448Z" fill="white"/>
<path d="M111.172 98.3448H106.897V102.621H111.172V98.3448Z" fill="white"/>
<path d="M119.724 98.3448H115.448V102.621H119.724V98.3448Z" fill="white"/>
<path d="M4.27586 102.621H0V106.897H4.27586V102.621Z" fill="white"/>
<path d="M12.8276 102.621H8.55172V106.897H12.8276V102.621Z" fill="white"/>
<path d="M17.1034 102.621H12.8276V106.897H17.1034V102.621Z" fill="white"/>
<path d="M21.3793 102.621H17.1034V106.897H21.3793V102.621Z" fill="white"/>
<path d="M29.931 102.621H25.6552V106.897H29.931V102.621Z" fill="white"/>
<path d="M47.0345 102.621H42.7586V106.897H47.0345V102.621Z" fill="white"/>
<path d="M51.3103 102.621H47.0345V106.897H51.3103V102.621Z" fill="white"/>
<path d="M64.1379 102.621H59.8621V106.897H64.1379V102.621Z" fill="white"/>
<path d="M68.4138 102.621H64.1379V106.897H68.4138V102.621Z" fill="white"/>
<path d="M81.2414 102.621H76.9655V106.897H81.2414V102.621Z" fill="white"/>
<path d="M85.5173 102.621H81.2414V106.897H85.5173V102.621Z" fill="white"/>
<path d="M89.7931 102.621H85.5173V106.897H89.7931V102.621Z" fill="white"/>
<path d="M94.069 102.621H89.7931V106.897H94.069V102.621Z" fill="white"/>
<path d="M98.3448 102.621H94.069V106.897H98.3448V102.621Z" fill="white"/>
<path d="M102.621 102.621H98.3448V106.897H102.621V102.621Z" fill="white"/>
<path d="M106.897 102.621H102.621V106.897H106.897V102.621Z" fill="white"/>
<path d="M111.172 102.621H106.897V106.897H111.172V102.621Z" fill="white"/>
<path d="M115.448 102.621H111.172V106.897H115.448V102.621Z" fill="white"/>
<path d="M119.724 102.621H115.448V106.897H119.724V102.621Z" fill="white"/>
<path d="M124 102.621H119.724V106.897H124V102.621Z" fill="white"/>
<path d="M4.27586 106.897H0V111.172H4.27586V106.897Z" fill="white"/>
<path d="M12.8276 106.897H8.55172V111.172H12.8276V106.897Z" fill="white"/>
<path d="M17.1034 106.897H12.8276V111.172H17.1034V106.897Z" fill="white"/>
<path d="M21.3793 106.897H17.1034V111.172H21.3793V106.897Z" fill="white"/>
<path d="M29.931 106.897H25.6552V111.172H29.931V106.897Z" fill="white"/>
<path d="M42.7586 106.897H38.4828V111.172H42.7586V106.897Z" fill="white"/>
<path d="M47.0345 106.897H42.7586V111.172H47.0345V106.897Z" fill="white"/>
<path d="M51.3103 106.897H47.0345V111.172H51.3103V106.897Z" fill="white"/>
<path d="M55.5862 106.897H51.3103V111.172H55.5862V106.897Z" fill="white"/>
<path d="M68.4138 106.897H64.1379V111.172H68.4138V106.897Z" fill="white"/>
<path d="M72.6897 106.897H68.4138V111.172H72.6897V106.897Z" fill="white"/>
<path d="M81.2414 106.897H76.9655V111.172H81.2414V106.897Z" fill="white"/>
<path d="M106.897 106.897H102.621V111.172H106.897V106.897Z" fill="white"/>
<path d="M111.172 106.897H106.897V111.172H111.172V106.897Z" fill="white"/>
<path d="M4.27586 111.172H0V115.448H4.27586V111.172Z" fill="white"/>
<path d="M12.8276 111.172H8.55172V115.448H12.8276V111.172Z" fill="white"/>
<path d="M17.1034 111.172H12.8276V115.448H17.1034V111.172Z" fill="white"/>
<path d="M21.3793 111.172H17.1034V115.448H21.3793V111.172Z" fill="white"/>
<path d="M29.931 111.172H25.6552V115.448H29.931V111.172Z" fill="white"/>
<path d="M47.0345 111.172H42.7586V115.448H47.0345V111.172Z" fill="white"/>
<path d="M51.3103 111.172H47.0345V115.448H51.3103V111.172Z" fill="white"/>
<path d="M59.8621 111.172H55.5862V115.448H59.8621V111.172Z" fill="white"/>
<path d="M64.1379 111.172H59.8621V115.448H64.1379V111.172Z" fill="white"/>
<path d="M89.7931 111.172H85.5173V115.448H89.7931V111.172Z" fill="white"/>
<path d="M94.069 111.172H89.7931V115.448H94.069V111.172Z" fill="white"/>
<path d="M102.621 111.172H98.3448V115.448H102.621V111.172Z" fill="white"/>
<path d="M4.27586 115.448H0V119.724H4.27586V115.448Z" fill="white"/>
<path d="M29.931 115.448H25.6552V119.724H29.931V115.448Z" fill="white"/>
<path d="M47.0345 115.448H42.7586V119.724H47.0345V115.448Z" fill="white"/>
<path d="M51.3103 115.448H47.0345V119.724H51.3103V115.448Z" fill="white"/>
<path d="M55.5862 115.448H51.3103V119.724H55.5862V115.448Z" fill="white"/>
<path d="M64.1379 115.448H59.8621V119.724H64.1379V115.448Z" fill="white"/>
<path d="M68.4138 115.448H64.1379V119.724H68.4138V115.448Z" fill="white"/>
<path d="M72.6897 115.448H68.4138V119.724H72.6897V115.448Z" fill="white"/>
<path d="M81.2414 115.448H76.9655V119.724H81.2414V115.448Z" fill="white"/>
<path d="M85.5173 115.448H81.2414V119.724H85.5173V115.448Z" fill="white"/>
<path d="M94.069 115.448H89.7931V119.724H94.069V115.448Z" fill="white"/>
<path d="M98.3448 115.448H94.069V119.724H98.3448V115.448Z" fill="white"/>
<path d="M102.621 115.448H98.3448V119.724H102.621V115.448Z" fill="white"/>
<path d="M106.897 115.448H102.621V119.724H106.897V115.448Z" fill="white"/>
<path d="M119.724 115.448H115.448V119.724H119.724V115.448Z" fill="white"/>
<path d="M124 115.448H119.724V119.724H124V115.448Z" fill="white"/>
<path d="M4.27586 119.724H0V124H4.27586V119.724Z" fill="white"/>
<path d="M8.55172 119.724H4.27586V124H8.55172V119.724Z" fill="white"/>
<path d="M12.8276 119.724H8.55172V124H12.8276V119.724Z" fill="white"/>
<path d="M17.1034 119.724H12.8276V124H17.1034V119.724Z" fill="white"/>
<path d="M21.3793 119.724H17.1034V124H21.3793V119.724Z" fill="white"/>
<path d="M25.6552 119.724H21.3793V124H25.6552V119.724Z" fill="white"/>
<path d="M29.931 119.724H25.6552V124H29.931V119.724Z" fill="white"/>
<path d="M42.7586 119.724H38.4828V124H42.7586V119.724Z" fill="white"/>
<path d="M55.5862 119.724H51.3103V124H55.5862V119.724Z" fill="white"/>
<path d="M64.1379 119.724H59.8621V124H64.1379V119.724Z" fill="white"/>
<path d="M76.9655 119.724H72.6897V124H76.9655V119.724Z" fill="white"/>
<path d="M81.2414 119.724H76.9655V124H81.2414V119.724Z" fill="white"/>
<path d="M85.5173 119.724H81.2414V124H85.5173V119.724Z" fill="white"/>
<path d="M94.069 119.724H89.7931V124H94.069V119.724Z" fill="white"/>
<path d="M111.172 119.724H106.897V124H111.172V119.724Z" fill="white"/>
<path d="M115.448 119.724H111.172V124H115.448V119.724Z" fill="white"/>
</svg>
