<svg width="227" height="457" viewBox="0 0 227 457" fill="none" xmlns="http://www.w3.org/2000/svg">
<path d="M222.655 72.7487H222.225V27.651C222.225 12.6978 210.104 0.576172 195.151 0.576172H31.0395C16.0863 0.576172 3.96471 12.6978 3.96471 27.651V72.7487H3.53528C1.58376 72.7487 0 74.3303 0 76.284V107.481C0 109.432 1.58163 111.016 3.53528 111.016H3.96471V118.457H3.53528C1.58376 118.457 0 120.038 0 121.992V153.189C0 155.14 1.58163 156.724 3.53528 156.724H3.96471V429.925C3.96471 444.878 16.0863 457 31.0395 457H195.151C210.104 457 222.225 444.878 222.225 429.925V130.147H222.655C224.606 130.147 226.19 128.565 226.19 126.611V76.2819C226.19 74.3303 224.609 72.7466 222.655 72.7466V72.7487Z" fill="#6952BC"/>
<path d="M192.358 7.27148H33.8335C21.6889 7.27148 11.8438 17.1166 11.8438 29.2613V428.308C11.8438 440.453 21.6889 450.298 33.8335 450.298H192.358C204.503 450.298 214.348 440.453 214.348 428.308V29.2613C214.348 17.1166 204.503 7.27148 192.358 7.27148Z" fill="#232131"/>
</svg>
