<svg width="85" height="86" viewBox="0 0 85 86" fill="none" xmlns="http://www.w3.org/2000/svg">
<path d="M20.753 22.4373C32.2156 10.4738 51.2062 10.0676 63.1697 21.5302C75.1332 32.9928 75.5394 51.9834 64.0768 63.9469C52.6142 75.9104 33.6236 76.3166 21.6601 64.854C9.69655 53.3914 9.29043 34.4008 20.753 22.4373Z" fill="#221C2B"/>
<g clip-path="url(#clip0_3355_10288)">
<path d="M35.4742 46.3523C35.4742 47.7461 34.3477 48.8726 32.9539 48.8726C31.5601 48.8726 30.4336 47.7461 30.4336 46.3523C30.4336 44.9585 31.5601 43.832 32.9539 43.832L35.4742 43.832L35.4742 46.3523ZM36.7343 46.3523C36.7343 44.9585 37.8608 43.832 39.2546 43.832C40.6484 43.832 41.7749 44.9585 41.7749 46.3523L41.7749 52.653C41.7749 54.0468 40.6484 55.1733 39.2546 55.1733C37.8608 55.1733 36.7343 54.0468 36.7343 52.653L36.7343 46.3523Z" fill="white"/>
<path d="M39.2542 36.233C37.8604 36.233 36.7339 35.1065 36.7339 33.7127C36.7339 32.3189 37.8604 31.1924 39.2542 31.1924C40.648 31.1924 41.7745 32.3189 41.7745 33.7127L41.7745 36.233L39.2542 36.233ZM39.2542 37.5122C40.648 37.5122 41.7745 38.6387 41.7745 40.0325C41.7745 41.4263 40.648 42.5528 39.2542 42.5528L32.9344 42.5528C31.5406 42.5528 30.4141 41.4263 30.4141 40.0325C30.4141 38.6387 31.5406 37.5122 32.9344 37.5122L39.2542 37.5122Z" fill="white"/>
<path d="M49.3554 40.0325C49.3554 38.6387 50.4819 37.5122 51.8757 37.5122C53.2695 37.5122 54.396 38.6387 54.396 40.0325C54.396 41.4263 53.2695 42.5528 51.8757 42.5528L49.3554 42.5528L49.3554 40.0325ZM48.0953 40.0325C48.0953 41.4263 46.9688 42.5528 45.575 42.5528C44.1812 42.5528 43.0547 41.4263 43.0547 40.0325L43.0547 33.7127C43.0547 32.3189 44.1812 31.1924 45.575 31.1924C46.9688 31.1924 48.0953 32.3189 48.0953 33.7127L48.0953 40.0325Z" fill="white"/>
<path d="M45.575 50.1328C46.9688 50.1328 48.0953 51.2592 48.0953 52.653C48.0953 54.0468 46.9688 55.1733 45.575 55.1733C44.1812 55.1733 43.0547 54.0468 43.0547 52.653L43.0547 50.1328L45.575 50.1328ZM45.575 48.8726C44.1812 48.8726 43.0547 47.7461 43.0547 46.3523C43.0547 44.9585 44.1812 43.832 45.575 43.832L51.8948 43.832C53.2886 43.832 54.4151 44.9585 54.4151 46.3523C54.4151 47.7461 53.2886 48.8726 51.8948 48.8726L45.575 48.8726Z" fill="white"/>
</g>
<defs>
<clipPath id="clip0_3355_10288">
<rect width="24" height="24" fill="white" transform="translate(30.4141 31.1924)"/>
</clipPath>
</defs>
</svg>
