<svg width="74" height="74" viewBox="0 0 74 74" fill="none" xmlns="http://www.w3.org/2000/svg">
<path d="M7.70911 28.9926C11.9666 12.9804 28.3984 3.45138 44.4106 7.70886C60.4228 11.9664 69.9519 28.3982 65.6944 44.4104C61.4369 60.4226 45.0051 69.9516 28.9929 65.6942C12.9807 61.4367 3.45162 45.0048 7.70911 28.9926Z" fill="#221C2B"/>
<path fill-rule="evenodd" clip-rule="evenodd" d="M48.7031 36.7012C48.7031 43.3286 43.3305 48.7012 36.7031 48.7012C30.0757 48.7012 24.7031 43.3286 24.7031 36.7012C24.7031 30.0738 30.0757 24.7012 36.7031 24.7012C43.3305 24.7012 48.7031 30.0738 48.7031 36.7012ZM37.1331 33.5601C35.966 34.0456 33.6333 35.0504 30.135 36.5745C29.5669 36.8004 29.2694 37.0214 29.2423 37.2375C29.1965 37.6027 29.6538 37.7465 30.2766 37.9423C30.3613 37.9689 30.4491 37.9965 30.5391 38.0258C31.1518 38.225 31.9759 38.458 32.4044 38.4672C32.7931 38.4756 33.2268 38.3154 33.7058 37.9865C36.9743 35.7802 38.6615 34.665 38.7674 34.6409C38.8422 34.624 38.9457 34.6027 39.0159 34.665C39.086 34.7274 39.0791 34.8455 39.0717 34.8772C39.0264 35.0703 37.2313 36.7393 36.3022 37.6029C36.0126 37.8722 35.8072 38.0632 35.7652 38.1068C35.6711 38.2045 35.5752 38.297 35.4831 38.3858C34.9139 38.9345 34.487 39.346 35.5067 40.018C35.9967 40.3409 36.3888 40.6079 36.78 40.8743C37.2073 41.1652 37.6334 41.4554 38.1847 41.8169C38.3252 41.9089 38.4593 42.0046 38.59 42.0977C39.0872 42.4522 39.5339 42.7706 40.0857 42.7198C40.4064 42.6903 40.7376 42.3888 40.9058 41.4895C41.3033 39.3643 42.0847 34.7596 42.2653 32.8621C42.2812 32.6959 42.2613 32.4831 42.2453 32.3897C42.2293 32.2964 42.1959 32.1633 42.0745 32.0648C41.9307 31.9481 41.7087 31.9235 41.6095 31.9253C41.1581 31.9332 40.4657 32.174 37.1331 33.5601Z" fill="white"/>
</svg>
