<svg width="85" height="85" viewBox="0 0 85 85" fill="none" xmlns="http://www.w3.org/2000/svg">
<path d="M20.753 21.6619C32.2156 9.69836 51.2062 9.29225 63.1697 20.7548C75.1332 32.2174 75.5394 51.208 64.0768 63.1715C52.6142 75.1351 33.6236 75.5412 21.6601 64.0786C9.69655 52.616 9.29043 33.6254 20.753 21.6619Z" fill="#221C2B"/>
<g clip-path="url(#clip0_3355_10309)">
<path d="M48.1954 38.612C49.9465 39.8631 52.0916 40.5992 54.4084 40.5992L54.4084 36.1432C53.97 36.1432 53.5326 36.0975 53.1037 36.0067L53.1037 39.5142C50.787 39.5142 48.6422 38.7781 46.8906 37.5271L46.8906 46.6206C46.8906 51.1696 43.2011 54.857 38.65 54.857C36.9519 54.857 35.3736 54.3439 34.0625 53.4639C35.5589 54.9931 37.6458 55.9418 39.9545 55.9418C44.5058 55.9418 48.1956 52.2544 48.1956 47.7052L48.1956 38.612L48.1954 38.612ZM49.805 34.1164C48.9101 33.1392 48.3225 31.8764 48.1954 30.4804L48.1954 29.9072L46.9589 29.9072C47.2702 31.6816 48.3318 33.1976 49.805 34.1164ZM36.941 49.9731C36.4411 49.3179 36.1709 48.5163 36.1721 47.6922C36.1721 45.6117 37.8597 43.9247 39.9417 43.9247C40.3297 43.9246 40.7154 43.984 41.0852 44.1013L41.0852 39.5457C40.653 39.4865 40.2169 39.4614 39.7809 39.4706L39.7809 43.0164C39.4109 42.8992 39.025 42.8396 38.6369 42.84C36.5549 42.84 34.8674 44.5267 34.8674 46.6075C34.8674 48.0788 35.7109 49.3526 36.941 49.9731Z" fill="white"/>
<path d="M46.8917 37.527C48.6432 38.778 50.788 39.5141 53.1047 39.5141L53.1047 36.0066C51.8115 35.7313 50.6667 35.0559 49.806 34.1164C48.3327 33.1975 47.2712 31.6816 46.96 29.9072L43.7121 29.9072L43.7121 47.705C43.7048 49.7799 42.0201 51.4599 39.9425 51.4599C38.7182 51.4599 37.6306 50.8767 36.9418 49.9731C35.7117 49.3526 34.8682 48.0787 34.8682 46.6076C34.8682 44.527 36.5557 42.8401 38.6377 42.8401C39.0366 42.8401 39.4211 42.9021 39.7818 43.0165L39.7818 39.4707C35.3107 39.563 31.7148 43.2144 31.7148 47.7051C31.7148 49.9469 32.6103 51.9791 34.0636 53.464C35.3747 54.3439 36.953 54.8571 38.6511 54.8571C43.2023 54.8571 46.8917 51.1695 46.8917 46.6206L46.8917 37.527L46.8917 37.527Z" fill="white"/>
</g>
<defs>
<clipPath id="clip0_3355_10309">
<rect width="24" height="27.1875" fill="white" transform="translate(30.4141 28.8232)"/>
</clipPath>
</defs>
</svg>
