<svg width="24" height="24" viewBox="0 0 24 24" fill="none" xmlns="http://www.w3.org/2000/svg">
<path d="M12.4449 1.95289C13.4234 1.95289 14.3035 2.49665 14.7414 3.37201L21.9628 17.8152C22.3635 18.6172 22.3216 19.5507 21.8507 20.3134C21.3792 21.0762 20.563 21.5314 19.6662 21.5314H5.22355C4.32723 21.5314 3.51054 21.0762 3.0396 20.3134C2.56813 19.5507 2.52622 18.6172 2.92749 17.8152L10.1483 3.37201C10.5862 2.49665 11.4663 1.95289 12.4449 1.95289ZM12.4449 0.1875C10.8036 0.1875 9.30332 1.11472 8.5694 2.58256L1.34808 17.0257C0.676495 18.3689 0.748263 19.964 1.53771 21.2412C2.32716 22.5183 3.72166 23.2963 5.22355 23.2963H19.6667C21.1686 23.2963 22.5631 22.5189 23.3526 21.2412C24.142 19.964 24.2138 18.3689 23.5422 17.0257L16.3203 2.58256C15.5864 1.11472 14.0861 0.1875 12.4449 0.1875Z" fill="#43FF04"/>
</svg>
