<svg width="85" height="86" viewBox="0 0 85 86" fill="none" xmlns="http://www.w3.org/2000/svg">
<path d="M20.753 22.4373C32.2156 10.4738 51.2062 10.0676 63.1697 21.5302C75.1332 32.9928 75.5394 51.9834 64.0768 63.9469C52.6142 75.9104 33.6236 76.3166 21.6601 64.854C9.69655 53.3914 9.29043 34.4008 20.753 22.4373Z" fill="#221C2B"/>
<path d="M37.0617 51.3859L37.4228 51.5999C38.9402 52.5004 40.68 52.9767 42.454 52.9776L42.4579 52.9776C47.9062 52.9776 52.3405 48.5443 52.3428 43.0956C52.3436 40.455 51.3166 37.9721 49.4502 36.1044C47.5837 34.2367 45.1021 33.2075 42.4616 33.2064C37.009 33.2064 32.5748 37.639 32.5727 43.0876C32.5719 44.9547 33.0943 46.7731 34.0839 48.3465L34.3192 48.7203L33.3203 52.3668L37.0617 51.3859ZM30.4648 55.1914L32.1521 49.0307C31.1114 47.2277 30.5639 45.1822 30.5647 43.0868C30.5673 36.5315 35.9023 31.1982 42.4579 31.1982C45.6392 31.1996 48.6252 32.4378 50.8708 34.6849C53.116 36.9322 54.352 39.9194 54.351 43.0964C54.3482 49.6514 49.0125 54.9856 42.4579 54.9856C42.4575 54.9856 42.4582 54.9856 42.4579 54.9856L42.4528 54.9856C40.4625 54.9848 38.5066 54.4856 36.7696 53.5383L30.4648 55.1914Z" fill="white"/>
<path d="M30.5581 43.069C30.5581 45.1804 31.11 47.2198 32.1657 49.0193L30.4621 55.1855L36.7724 53.53C38.4999 54.4897 40.4673 54.9696 42.4587 54.9696C49.0089 54.9696 54.3594 49.6431 54.3594 43.093C54.3594 39.9019 53.1117 36.9267 50.8804 34.6714C48.625 32.44 45.6498 31.1923 42.4587 31.1923C35.9086 31.1923 30.5581 36.5188 30.5581 43.069ZM34.3251 48.7074L34.0851 48.3475C33.1014 46.7639 32.5735 44.9404 32.5735 43.093C32.5735 37.6225 37.0123 33.2078 42.4587 33.2078C45.098 33.2078 47.5933 34.2395 49.4408 36.087C51.3122 37.9584 52.3439 40.4537 52.3439 43.093C52.3439 48.5394 47.9052 52.9782 42.4587 52.9782C40.6832 52.9782 38.9317 52.4983 37.4202 51.5866L37.0603 51.3706L33.3173 52.3543L34.3251 48.7074Z" fill="url(#paint0_linear_3355_10302)"/>
<path fill-rule="evenodd" clip-rule="evenodd" d="M39.4848 38.1181C39.2622 37.6232 39.0279 37.6133 38.8161 37.6046C38.6429 37.5972 38.4446 37.5977 38.2466 37.5977C38.0485 37.5977 37.7265 37.6721 37.4543 37.9695C37.1818 38.2668 36.4141 38.9857 36.4141 40.4477C36.4141 41.9099 37.479 43.3226 37.6275 43.5211C37.7761 43.7192 39.6833 46.8154 42.7038 48.0066C45.214 48.9964 45.7249 48.7995 46.2697 48.75C46.8146 48.7005 48.0279 48.0313 48.2755 47.3374C48.5232 46.6436 48.5232 46.0489 48.4489 45.9246C48.3746 45.8007 48.1765 45.7264 47.8793 45.5778C47.5821 45.4292 46.1211 44.7102 45.8487 44.6112C45.5763 44.5121 45.3781 44.4625 45.18 44.76C44.9818 45.0572 44.4127 45.7264 44.2393 45.9246C44.0659 46.1232 43.8926 46.1479 43.5954 45.9993C43.2982 45.8503 42.3411 45.5368 41.2057 44.5245C40.3223 43.7369 39.7259 42.7642 39.5525 42.4667C39.3791 42.1695 39.5339 42.0085 39.683 41.8603C39.8164 41.7272 39.9802 41.5135 40.1288 41.3399C40.2771 41.1664 40.3266 41.0426 40.4257 40.8444C40.5247 40.646 40.4752 40.4724 40.4009 40.3238C40.3266 40.1752 39.7491 38.7056 39.4848 38.1181Z" fill="white"/>
<defs>
<linearGradient id="paint0_linear_3355_10302" x1="42.4097" y1="55.1855" x2="42.4097" y2="31.1923" gradientUnits="userSpaceOnUse">
<stop stop-color="#F9F9F9"/>
<stop offset="1" stop-color="white"/>
</linearGradient>
</defs>
</svg>
