<svg width="85" height="86" viewBox="0 0 85 86" fill="none" xmlns="http://www.w3.org/2000/svg">
<path d="M20.753 22.4373C32.2156 10.4738 51.2062 10.0676 63.1697 21.5302C75.1332 32.9928 75.5394 51.9834 64.0768 63.9469C52.6142 75.9104 33.6236 76.3166 21.6601 64.854C9.69655 53.3914 9.29043 34.4008 20.753 22.4373Z" fill="#221C2B"/>
<g clip-path="url(#clip0_3355_10294)">
<path d="M52.1878 52.743L44.3292 41.3263L43.4405 40.0351L37.8188 31.868L37.3532 31.1914L30.4453 31.1914L32.1302 33.6398L39.6044 44.5001L40.4932 45.7901L46.4991 54.5161L46.9648 55.192L53.8726 55.192L52.1878 52.7436L52.1878 52.743ZM47.7853 53.6292L41.5459 44.564L40.6572 43.2734L33.4176 32.7542L36.532 32.7542L42.3871 41.2612L43.2759 42.5518L50.9003 53.6292L47.7859 53.6292L47.7853 53.6292Z" fill="white"/>
<path d="M40.6574 43.2725L41.5455 44.563L40.4928 45.7891L32.4108 55.1911L30.418 55.1911L39.604 44.4992L40.6574 43.2725Z" fill="white"/>
<path d="M53.0405 31.1914L44.3282 41.3263L43.2755 42.5518L42.3867 41.2612L43.4401 40.0351L49.3415 33.1667L51.047 31.1914L53.0405 31.1914Z" fill="white"/>
</g>
<defs>
<clipPath id="clip0_3355_10294">
<rect width="23.4536" height="24" fill="white" transform="translate(30.4141 31.1924)"/>
</clipPath>
</defs>
</svg>
